<svg width="59" height="58" viewBox="0 0 59 58" fill="none" xmlns="http://www.w3.org/2000/svg">
<rect x="0.260742" width="58" height="58" rx="17.7143" fill="#F2F6FD"/>
<circle cx="27.8776" cy="29.8124" r="14.1789" fill="#306FFF"/>
<circle cx="27.878" cy="29.8136" r="8.81993" fill="#004098"/>
<path fill-rule="evenodd" clip-rule="evenodd" d="M27.5604 22.8706C27.8643 22.5641 28.3591 22.562 28.6656 22.8659C28.9721 23.1699 28.9742 23.6647 28.6702 23.9712L28.0336 24.6132L36.0383 32.6179L44.5291 24.127C44.8343 23.8218 45.3291 23.8218 45.6343 24.127C45.9395 24.4322 45.9395 24.9271 45.6343 25.2323L36.5911 34.2755C36.389 34.4776 36.1036 34.5459 35.8453 34.4802C35.7134 34.4468 35.5885 34.3785 35.4853 34.2753L26.9331 25.7231L19.1993 33.5226C18.8953 33.8291 18.4005 33.8312 18.094 33.5273C17.7875 33.2234 17.7855 32.7286 18.0894 32.4221L25.8278 24.6179L25.1835 23.9735C24.8783 23.6683 24.8783 23.1735 25.1835 22.8683C25.4887 22.5631 25.9835 22.5631 26.2887 22.8683L26.9284 23.508L27.5604 22.8706Z" fill="white"/>
<g filter="url(#filter0_bi_214_2659)">
<path fill-rule="evenodd" clip-rule="evenodd" d="M27.3196 28.8826C29.7654 28.8826 31.7481 26.8998 31.7481 24.454C31.7481 22.0082 29.7654 20.0254 27.3196 20.0254C24.8737 20.0254 22.891 22.0082 22.891 24.454C22.891 26.8998 24.8737 28.8826 27.3196 28.8826ZM35.5082 36.2892C37.3835 36.2892 38.9037 34.769 38.9037 32.8937C38.9037 31.0184 37.3835 29.4982 35.5082 29.4982C33.6329 29.4982 32.1127 31.0184 32.1127 32.8937C32.1127 34.769 33.6329 36.2892 35.5082 36.2892ZM49.4624 26.2775C49.4624 29.155 47.1298 31.4876 44.2523 31.4876C41.3749 31.4876 39.0423 29.155 39.0423 26.2775C39.0423 23.4001 41.3749 21.0674 44.2523 21.0674C47.1298 21.0674 49.4624 23.4001 49.4624 26.2775ZM19.616 35.1368C21.2808 35.1368 22.6304 33.7872 22.6304 32.1224C22.6304 30.4576 21.2808 29.108 19.616 29.108C17.9512 29.108 16.6016 30.4576 16.6016 32.1224C16.6016 33.7872 17.9512 35.1368 19.616 35.1368Z" fill="#739EFF" fill-opacity="0.5"/>
</g>
<defs>
<filter id="filter0_bi_214_2659" x="6.18139" y="9.60526" width="53.7012" height="37.1041" filterUnits="userSpaceOnUse" color-interpolation-filters="sRGB">
<feFlood flood-opacity="0" result="BackgroundImageFix"/>
<feGaussianBlur in="BackgroundImageFix" stdDeviation="5.21008"/>
<feComposite in2="SourceAlpha" operator="in" result="effect1_backgroundBlur_214_2659"/>
<feBlend mode="normal" in="SourceGraphic" in2="effect1_backgroundBlur_214_2659" result="shape"/>
<feColorMatrix in="SourceAlpha" type="matrix" values="0 0 0 0 0 0 0 0 0 0 0 0 0 0 0 0 0 0 127 0" result="hardAlpha"/>
<feOffset dx="1.04202" dy="1.56303"/>
<feGaussianBlur stdDeviation="5.21008"/>
<feComposite in2="hardAlpha" operator="arithmetic" k2="-1" k3="1"/>
<feColorMatrix type="matrix" values="0 0 0 0 1 0 0 0 0 1 0 0 0 0 1 0 0 0 0.6 0"/>
<feBlend mode="normal" in2="shape" result="effect2_innerShadow_214_2659"/>
</filter>
</defs>
</svg>
