<svg width="32" height="32" viewBox="0 0 32 32" fill="none" xmlns="http://www.w3.org/2000/svg">
<circle cx="16" cy="16" r="16" fill="#131B2C" fill-opacity="0.76"/>
<path d="M15.4667 22.9333C15.4667 23.2279 15.7054 23.4667 16 23.4667C16.2946 23.4667 16.5333 23.2279 16.5333 22.9333L15.4667 22.9333ZM16.3771 9.22289C16.1688 9.01461 15.8312 9.01461 15.6229 9.22289L12.2288 12.617C12.0205 12.8253 12.0205 13.163 12.2288 13.3713C12.437 13.5795 12.7747 13.5795 12.983 13.3713L16 10.3543L19.017 13.3713C19.2253 13.5795 19.563 13.5795 19.7712 13.3713C19.9795 13.163 19.9795 12.8253 19.7712 12.617L16.3771 9.22289ZM16.5333 22.9333L16.5333 9.60002L15.4667 9.60002L15.4667 22.9333L16.5333 22.9333Z" fill="white"/>
</svg>
