<svg width="177" height="21" viewBox="0 0 177 21" fill="none" xmlns="http://www.w3.org/2000/svg">
<g id="logo">
<path id="Union" fill-rule="evenodd" clip-rule="evenodd" d="M72.2001 11.5756C72.1116 12.9506 72.4961 14.1596 74.5535 14.1596C75.8182 14.1596 77.3254 13.9187 77.3248 11.8619C77.3248 10.4572 76.2658 9.88473 75.3397 9.38411C74.6202 8.99517 73.981 8.6496 73.981 7.99083C73.9693 7.87574 73.9835 7.75949 74.0227 7.65064C74.0618 7.54179 74.1249 7.44312 74.2073 7.36187C74.2896 7.28063 74.3891 7.21888 74.4985 7.18119C74.6079 7.14349 74.7243 7.1308 74.8392 7.14406C75.5095 7.14406 75.6084 7.74882 75.6084 8.3421H77.2249C77.3347 6.6819 76.5316 5.95642 74.9162 5.95642C72.8922 5.95642 72.2984 6.94576 72.2984 8.18859C72.2984 9.51879 73.3568 10.1286 74.2827 10.6621C75.0025 11.0769 75.6423 11.4455 75.6423 12.0706C75.6585 12.1871 75.6487 12.3059 75.6134 12.4182C75.5781 12.5305 75.5183 12.6335 75.4383 12.7198C75.3583 12.8062 75.2601 12.8736 75.1508 12.9173C75.0415 12.961 74.9239 12.9799 74.8064 12.9725C73.893 12.9725 73.8597 12.3344 73.8597 11.5756H72.2001ZM80.1085 6.08777L77.9102 14.0271H79.5512L80.0019 12.2675H82.268L82.705 14.0271H84.4532L82.298 6.08777H80.1085ZM81.0874 7.61631H81.1104L81.9134 11.0476H80.3292L81.0874 7.61631ZM85.2051 14.0271V6.08777H87.8776L89.1204 11.4868H89.1417L90.4615 6.08777H93.045V14.0271H91.4296V7.90203H91.4083L89.8786 14.0271H88.2944L86.8423 7.90203H86.8199V14.0271H85.2051ZM94.2059 11.5756C94.1168 12.9506 94.5025 14.1596 96.5588 14.1596C97.824 14.1596 99.3302 13.9187 99.3296 11.8619C99.3296 10.4572 98.2708 9.88473 97.3448 9.38411C96.6254 8.99517 95.9863 8.6496 95.9863 7.99083C95.9746 7.87579 95.9888 7.7596 96.028 7.65079C96.0671 7.54199 96.1301 7.44334 96.2124 7.36211C96.2947 7.28087 96.3941 7.21912 96.5034 7.18139C96.6127 7.14365 96.7291 7.13089 96.844 7.14406C97.5143 7.14406 97.6142 7.74882 97.6142 8.3421H99.2313C99.3411 6.6819 98.5386 5.95642 96.9215 5.95642C94.8986 5.95642 94.3048 6.94576 94.3048 8.18859C94.3048 9.51879 95.363 10.1286 96.2887 10.6621C97.0085 11.0769 97.6481 11.4455 97.6481 12.0706C97.6644 12.1872 97.6545 12.306 97.6192 12.4183C97.5839 12.5306 97.5241 12.6337 97.444 12.7201C97.3639 12.8064 97.2657 12.8738 97.1563 12.9175C97.0469 12.9612 96.9293 12.9799 96.8117 12.9725C95.8994 12.9725 95.8666 12.3344 95.8666 11.5756H94.2059ZM105.887 6.08779V11.7174C105.887 12.9056 105.217 14.1588 103.193 14.1588C101.367 14.1588 100.488 13.2137 100.488 11.7174V6.08779H102.149V11.6054C102.149 12.5843 102.566 12.9711 103.172 12.9711C103.897 12.9711 104.227 12.4871 104.227 11.6054V6.08779H105.887ZM107.255 6.08779V14.0271H108.805V8.22052H108.827L110.994 14.0271H113.179V6.08779H111.63V11.5863H111.607L109.495 6.08779H107.255ZM118.209 8.53002C118.22 7.79307 118.1 7.14406 117.218 7.14406C116.185 7.14406 116.185 8.54094 116.185 10.0804C116.185 12.565 116.427 13.0047 117.373 13.0047C117.654 12.9983 117.932 12.9465 118.197 12.8512V11.0922H117.296V9.87062H119.858V13.8952C119.118 14.0395 118.368 14.1277 117.615 14.1591C114.823 14.1591 114.501 13.0042 114.501 9.99246C114.501 7.99028 114.599 5.95642 117.316 5.95642C118.942 5.95642 119.954 6.86928 119.856 8.52947L118.209 8.53002ZM126.409 5.95642C123.67 5.95642 123.67 7.95805 123.67 10.0586C123.67 12.1361 123.67 14.1591 126.409 14.1591C127.959 14.1591 128.806 13.4773 128.806 11.3555H127.167C127.165 11.4003 127.164 11.447 127.163 11.4951L127.163 11.4967C127.146 12.1202 127.122 12.9725 126.409 12.9725C125.474 12.9725 125.353 12.0935 125.353 10.0586C125.353 8.02361 125.474 7.14408 126.409 7.14408C126.902 7.14408 127.09 7.54015 127.09 8.59559H128.718C128.783 6.8906 128.103 5.95642 126.409 5.95642ZM134.352 13.4008C134.056 13.6731 133.707 13.8811 133.327 14.0116C132.946 14.1421 132.543 14.1923 132.142 14.1591C130.316 14.1591 129.302 13.3019 129.302 11.7515C129.302 10.6955 130.039 10.0247 130.864 9.48604C130.351 8.94279 130.041 8.24032 129.985 7.4959C129.985 6.61636 131.029 5.95642 132.381 5.95642C133.141 5.95642 134.394 6.30824 134.394 7.50682C134.394 8.44741 133.802 8.96907 133.215 9.48612L133.215 9.48646C133.157 9.53777 133.099 9.58903 133.041 9.64065L134.283 11.2675C134.428 10.7525 134.487 10.2174 134.46 9.68327H135.802C135.882 10.6214 135.695 11.5631 135.263 12.3994L136.461 14.0269H134.835L134.352 13.4008ZM131.767 10.4645C131.547 10.6069 131.361 10.7961 131.223 11.0186C131.084 11.241 130.997 11.4913 130.966 11.7515C130.95 11.9147 130.971 12.0794 131.026 12.2338C131.081 12.3882 131.169 12.5286 131.285 12.645C131.4 12.7615 131.54 12.8511 131.694 12.9076C131.847 12.9641 132.012 12.9861 132.175 12.972C132.404 12.9845 132.633 12.9433 132.843 12.8516C133.053 12.76 133.238 12.6205 133.385 12.4442L131.767 10.4645ZM132.878 7.62755C132.886 7.53593 132.874 7.44367 132.843 7.35726C132.811 7.27084 132.761 7.19235 132.696 7.12732C132.631 7.06229 132.553 7.01229 132.466 6.98083C132.38 6.94937 132.288 6.93721 132.196 6.94522C132.021 6.93733 131.851 6.99879 131.721 7.11617C131.592 7.23354 131.514 7.39732 131.505 7.57182C131.555 8.0107 131.761 8.41693 132.086 8.71578C132.299 8.6157 132.483 8.46357 132.622 8.27346C132.76 8.08336 132.849 7.86139 132.879 7.62809L132.878 7.62755ZM141.933 7.4059V6.08769L136.577 6.08661V7.4059H138.425V14.027H140.085V7.4059H141.933Z" fill="#004098"/>
<path id="Union_2" fill-rule="evenodd" clip-rule="evenodd" d="M148.703 6.13623V11.5703C148.703 11.8294 148.676 12.0506 148.622 12.2341C148.568 12.414 148.489 12.5525 148.384 12.6496C148.284 12.7467 148.16 12.7953 148.012 12.7953C147.875 12.7953 147.753 12.7593 147.645 12.6874C147.541 12.6154 147.46 12.4985 147.402 12.3366C147.345 12.1747 147.316 11.9535 147.316 11.6729H145.729C145.729 12.2269 145.828 12.6838 146.026 13.0435C146.224 13.3997 146.494 13.6659 146.836 13.8422C147.181 14.0149 147.573 14.1012 148.012 14.1012C148.44 14.1012 148.825 14.0005 149.167 13.799C149.509 13.5976 149.779 13.308 149.976 12.9302C150.178 12.5489 150.279 12.0974 150.279 11.5757V6.13623H148.703ZM154.796 6.13623H154.402H153.738H153.361L150.905 13.9933H152.573L152.996 12.3744H155.168L155.595 13.9933H157.273L154.796 6.13623ZM154.823 11.0631H153.34L154.079 8.23812L154.823 11.0631ZM159.598 11.225H160.699C161.228 11.225 161.683 11.1224 162.065 10.9174C162.446 10.7123 162.737 10.4245 162.939 10.054C163.144 9.67983 163.246 9.23913 163.246 8.73187C163.246 8.22821 163.144 7.78211 162.939 7.39358C162.737 7.00144 162.446 6.69385 162.065 6.4708C161.683 6.24775 161.228 6.13623 160.699 6.13623H158.023V13.9933H159.598V11.225ZM159.598 9.91367V7.44754H160.699C160.926 7.44754 161.108 7.5087 161.244 7.63102C161.385 7.75333 161.487 7.91343 161.552 8.11129C161.62 8.30556 161.654 8.51602 161.654 8.74266C161.654 8.96571 161.622 9.16718 161.557 9.34705C161.493 9.52333 161.388 9.66184 161.244 9.76257C161.104 9.8633 160.922 9.91367 160.699 9.91367H159.598ZM166.721 6.13623H166.327H165.663H165.286L162.83 13.9933H164.498L164.921 12.3744H167.093L167.52 13.9933H169.198L166.721 6.13623ZM166.748 11.0631H165.265L166.004 8.23813L166.748 11.0631ZM175.442 6.13623V13.9933H173.915L171.448 9.07724V13.9933H169.948V6.13623H171.454L173.942 11.1063V6.13623H175.442Z" fill="#004098"/>
<path id="&#237;&#140;&#168;&#236;&#138;&#164; 45410" d="M59.9278 4.73995C59.1111 0.0598277 45.0418 -1.4037 28.5038 1.47582C22.3111 2.49976 16.2441 4.1764 10.4044 6.47772C11.0001 6.44007 11.5882 6.62764 12.0521 7.00325C12.1866 7.14785 12.2908 7.31801 12.3584 7.50363C12.4259 7.68925 12.4555 7.88655 12.4454 8.08383V8.54763H10.8251V8.13573C10.8312 8.06036 10.8206 7.98456 10.7939 7.91379C10.7673 7.84303 10.7253 7.77906 10.671 7.72646C10.6166 7.67385 10.5513 7.63394 10.4797 7.60959C10.4082 7.58523 10.3321 7.57704 10.2569 7.5856C10.1299 7.57026 10.0019 7.60385 9.89878 7.67956C9.79567 7.75526 9.72527 7.86738 9.70189 7.99313C9.6844 8.10096 9.68793 8.21115 9.71227 8.31763C9.88545 9.02782 12.2924 9.46485 12.553 10.776C12.6142 11.1208 12.6174 11.4735 12.5623 11.8194C12.4093 12.8765 11.4839 13.284 10.3039 13.284C8.65519 13.284 7.98488 12.5028 7.98488 11.4266V10.9207H9.72429L9.72703 11.555C9.7256 11.6331 9.74094 11.7106 9.77202 11.7823C9.8031 11.854 9.84918 11.9181 9.90717 11.9705C9.96516 12.0228 10.0337 12.0621 10.1082 12.0857C10.1827 12.1093 10.2613 12.1167 10.3389 12.1073C10.4725 12.1273 10.6087 12.096 10.7202 12.0197C10.8316 11.9434 10.9101 11.8277 10.9398 11.6959C10.9783 11.5458 10.9733 11.3878 10.9256 11.2403C10.6049 10.434 8.35801 10.0576 8.07994 8.75358C8.01725 8.47055 8.01149 8.17789 8.063 7.89262C8.08802 7.73603 8.13645 7.5841 8.20668 7.44193C2.78961 9.97456 -0.380553 12.7607 0.0390029 15.1682C0.858447 19.8505 14.9239 21.3124 31.4609 18.4345C37.8979 17.3772 44.1966 15.604 50.2398 13.148C50.1671 13.1545 50.0989 13.1595 50.0213 13.1595C48.8899 13.1595 47.8771 12.7355 47.7744 11.5796C47.7536 11.3703 47.7536 11.2791 47.7498 11.16L47.7536 8.49847C47.7536 8.38921 47.7662 8.18544 47.7766 8.08164C47.9142 6.96228 48.7954 6.50175 50.0207 6.50175C50.9686 6.50175 52.13 6.77217 52.2606 8.08328C52.2769 8.24717 52.2769 8.42307 52.2769 8.47825V8.73174H50.6381V8.35479C50.6363 8.27636 50.6299 8.1981 50.6189 8.12042C50.5775 7.99128 50.4962 7.87863 50.3866 7.79871C50.277 7.71879 50.1449 7.67571 50.0093 7.67571C49.8736 7.67571 49.7415 7.71879 49.632 7.79871C49.5224 7.87863 49.441 7.99128 49.3996 8.12042C49.3828 8.21803 49.3746 8.31693 49.375 8.41598V11.3059C49.3726 11.3854 49.3773 11.4649 49.3892 11.5435C49.4191 11.6825 49.5 11.8053 49.6158 11.8877C49.7317 11.9701 49.8742 12.0061 50.0153 11.9887C50.156 12.0065 50.2983 11.9706 50.4136 11.888C50.529 11.8055 50.6089 11.6825 50.6375 11.5435C50.6509 11.4651 50.6562 11.3854 50.6534 11.3059V10.4127H50.0076V9.44683H52.2868V11.1606C52.2879 11.3007 52.2813 11.4407 52.2671 11.5801C52.2428 11.8586 52.1489 12.1265 51.994 12.3591C57.2684 9.85328 60.3381 7.10978 59.9278 4.73995ZM17.0436 13.0376L16.2127 7.40041H16.1832L15.3331 13.0382H13.5822L14.7584 6.67001H17.615L18.7824 13.0382L17.0436 13.0376ZM25.4565 13.0376L25.4167 7.50803H25.3904L24.3601 13.0376H22.7136L21.6936 7.50967H21.6647L21.6259 13.0393H20.0007L20.1416 6.6711H22.7573L23.5183 11.4026H23.5565L24.3213 6.6711H26.937L27.0747 13.0393L25.4565 13.0376ZM33.1129 11.803C32.9381 13.0376 31.7291 13.2518 30.8763 13.2518C29.4592 13.2518 28.5819 12.6465 28.5819 11.4135L28.5857 10.9087H30.3022V11.5359C30.3009 11.6137 30.3164 11.6909 30.3476 11.7622C30.3788 11.8335 30.425 11.8972 30.4831 11.949C30.5412 12.0009 30.6097 12.0396 30.6841 12.0625C30.7584 12.0855 30.8369 12.0922 30.914 12.0822C31.0451 12.1016 31.1788 12.0708 31.2881 11.9959C31.3975 11.9211 31.4746 11.8077 31.504 11.6785C31.5447 11.5296 31.5407 11.3722 31.4926 11.2256C31.1752 10.4345 28.9441 10.0483 28.6748 8.76396C28.6132 8.48351 28.6083 8.19355 28.6606 7.91119C28.8463 6.74758 29.9662 6.50557 30.8649 6.50557C31.4922 6.44599 32.1178 6.6351 32.607 7.03221C32.7413 7.17431 32.8455 7.34216 32.9132 7.52562C32.9809 7.70908 33.0107 7.90436 33.0009 8.09967V8.56184H31.3959V8.15538C31.4015 8.08086 31.3908 8.006 31.3644 7.9361C31.3379 7.8662 31.2964 7.80296 31.2429 7.75085C31.1893 7.69873 31.1249 7.65903 31.0543 7.63454C30.9837 7.61004 30.9086 7.60136 30.8343 7.6091C30.7075 7.59307 30.5793 7.62628 30.4763 7.7019C30.3732 7.77751 30.3031 7.88977 30.2803 8.01554C30.2605 8.12051 30.2631 8.2285 30.288 8.33239C30.4628 9.03929 32.8463 9.47142 33.108 10.7678C33.1653 11.1102 33.1664 11.4597 33.1112 11.8025L33.1129 11.803ZM39.062 11.2272C39.0664 11.3452 39.0533 11.5828 39.0462 11.6451C38.9484 12.6918 38.1978 13.2267 36.8206 13.2267C35.4434 13.2267 34.69 12.6918 34.5917 11.6451C34.5879 11.5828 34.5748 11.3452 34.5775 11.2272V6.66837H36.2164V11.3703C36.2125 11.4492 36.218 11.5282 36.2328 11.6058C36.2574 11.7395 36.331 11.8592 36.4392 11.9416C36.5474 12.0239 36.6824 12.0629 36.8179 12.051C36.9541 12.0626 37.0898 12.0235 37.1991 11.9414C37.3084 11.8593 37.3837 11.7398 37.4106 11.6058C37.4191 11.5276 37.4226 11.449 37.421 11.3703V6.66837H39.0599L39.062 11.2272ZM46.1399 12.9721H43.8552L42.3201 7.92977H42.2956L42.3781 12.9721H40.7834V6.66947H43.1647L44.5851 11.5151H44.6173L44.5348 6.66947H46.1366L46.1399 12.9721Z" fill="#004098"/>
</g>
</svg>
