<svg width="237" height="27" viewBox="0 0 237 27" fill="none" xmlns="http://www.w3.org/2000/svg">
<path fill-rule="evenodd" clip-rule="evenodd" d="M96.2076 15.5803C96.0896 17.431 96.6021 19.0583 99.3435 19.0583C101.029 19.0583 103.037 18.734 103.036 15.9656C103.036 14.075 101.625 13.3044 100.391 12.6306C99.4325 12.1071 98.5806 11.642 98.5806 10.7553C98.565 10.6004 98.584 10.444 98.6362 10.2974C98.6884 10.1509 98.7725 10.0181 98.8822 9.90878C98.9919 9.79942 99.1245 9.71631 99.2702 9.66558C99.416 9.61484 99.5711 9.59776 99.7242 9.6156C100.617 9.6156 100.749 10.4296 100.749 11.2281H102.903C103.049 8.99356 101.979 8.01709 99.8269 8.01709C97.1299 8.01709 96.3386 9.34871 96.3386 11.0215C96.3386 12.8119 97.7489 13.6327 98.9827 14.3508C99.9419 14.909 100.794 15.4051 100.794 16.2465C100.816 16.4034 100.803 16.5632 100.756 16.7144C100.709 16.8655 100.629 17.0042 100.523 17.1204C100.416 17.2366 100.285 17.3274 100.139 17.3862C99.9939 17.445 99.8371 17.4704 99.6806 17.4605C98.4635 17.4605 98.419 16.6016 98.419 15.5803H96.2076ZM106.746 8.19399L103.817 18.88H106.003L106.604 16.5116H109.624L110.206 18.88H112.535L109.664 8.19399H106.746ZM108.05 10.2513H108.081L109.151 14.8697H107.04L108.05 10.2513ZM113.536 18.88V8.19399H117.097L118.753 15.4609H118.782L120.541 8.19399H123.983V18.88H121.831V10.6359H121.802L119.764 18.88H117.653L115.718 10.6359H115.688V18.88H113.536ZM125.53 15.5804C125.412 17.4311 125.926 19.0583 128.666 19.0583C130.352 19.0583 132.358 18.7341 132.358 15.9657C132.358 14.0751 130.947 13.3045 129.713 12.6307C128.754 12.1072 127.903 11.6421 127.903 10.7554C127.887 10.6006 127.906 10.4442 127.958 10.2977C128.01 10.1513 128.094 10.0185 128.204 9.90918C128.314 9.79984 128.446 9.71672 128.592 9.66593C128.737 9.61514 128.893 9.59797 129.046 9.61569C129.939 9.61569 130.072 10.4297 130.072 11.2282H132.227C132.373 8.99365 131.304 8.01718 129.149 8.01718C126.453 8.01718 125.662 9.34879 125.662 11.0216C125.662 12.812 127.072 13.6328 128.306 14.3508C129.265 14.9091 130.117 15.4052 130.117 16.2466C130.139 16.4035 130.126 16.5634 130.079 16.7146C130.032 16.8658 129.952 17.0046 129.845 17.1208C129.738 17.237 129.608 17.3278 129.462 17.3865C129.316 17.4453 129.159 17.4706 129.003 17.4605C127.787 17.4605 127.743 16.6017 127.743 15.5804H125.53ZM141.095 8.19399V15.7712C141.095 17.3705 140.202 19.0572 137.506 19.0572C135.073 19.0572 133.902 17.7852 133.902 15.7712V8.19399H136.114V15.6205C136.114 16.9381 136.671 17.4587 137.478 17.4587C138.443 17.4587 138.883 16.8072 138.883 15.6205V8.19399H141.095ZM142.918 8.19399V18.88H144.983V11.0646H145.013L147.901 18.88H150.813V8.19399H148.748V15.5947H148.718L145.903 8.19399H142.918ZM157.515 11.4811C157.529 10.4892 157.369 9.61569 156.194 9.61569C154.818 9.61569 154.818 11.4958 154.818 13.5679C154.818 16.912 155.14 17.5039 156.4 17.5039C156.775 17.4952 157.146 17.4255 157.499 17.2973V14.9297H156.298V13.2855H159.712V18.7025C158.726 18.8967 157.727 19.0155 156.723 19.0576C153.002 19.0576 152.574 17.5032 152.574 13.4495C152.574 10.7547 152.705 8.01718 156.325 8.01718C158.492 8.01718 159.841 9.24585 159.71 11.4804L157.515 11.4811ZM168.441 8.01718C164.791 8.01718 164.791 10.7113 164.791 13.5385C164.791 16.3348 164.791 19.0576 168.441 19.0576C170.507 19.0576 171.635 18.14 171.635 15.2841H169.451C169.449 15.3448 169.447 15.408 169.445 15.4731L169.445 15.4742C169.423 16.3134 169.391 17.4606 168.441 17.4606C167.195 17.4606 167.034 16.2775 167.034 13.5385C167.034 10.7995 167.195 9.61571 168.441 9.61571C169.098 9.61571 169.348 10.1488 169.348 11.5694H171.518C171.605 9.27455 170.698 8.01718 168.441 8.01718ZM179.024 18.037C178.63 18.4035 178.165 18.6835 177.659 18.8591C177.152 19.0348 176.615 19.1024 176.081 19.0576C173.646 19.0576 172.295 17.9039 172.295 15.8172C172.295 14.3959 173.278 13.4929 174.377 12.7679C173.694 12.0367 173.281 11.0912 173.205 10.0893C173.205 8.90543 174.597 8.01718 176.399 8.01718C177.411 8.01718 179.081 8.49071 179.081 10.104C179.081 11.37 178.292 12.0721 177.51 12.768L177.51 12.7681C177.433 12.8373 177.355 12.9064 177.278 12.976L178.933 15.1657C179.126 14.4725 179.205 13.7523 179.169 13.0334H180.956C181.064 14.296 180.815 15.5635 180.239 16.6892L181.836 18.8797H179.668L179.024 18.037ZM175.581 14.0848C175.288 14.2766 175.04 14.5312 174.855 14.8307C174.671 15.1301 174.554 15.4669 174.513 15.8172C174.492 16.0368 174.519 16.2584 174.593 16.4663C174.666 16.6741 174.784 16.863 174.938 17.0198C175.091 17.1765 175.277 17.2972 175.483 17.3732C175.688 17.4493 175.907 17.4788 176.124 17.4598C176.429 17.4767 176.734 17.4212 177.014 17.2979C177.294 17.1745 177.541 16.9867 177.736 16.7495L175.581 14.0848ZM177.061 10.2665C177.072 10.1431 177.056 10.019 177.014 9.90265C176.972 9.78633 176.905 9.68069 176.819 9.59316C176.732 9.50563 176.627 9.43833 176.512 9.39599C176.397 9.35364 176.274 9.33728 176.152 9.34806C175.919 9.33745 175.692 9.42017 175.52 9.57815C175.347 9.73613 175.243 9.95657 175.231 10.1914C175.297 10.7822 175.572 11.3289 176.006 11.7312C176.289 11.5965 176.535 11.3917 176.719 11.1358C176.904 10.8799 177.022 10.5812 177.062 10.2672L177.061 10.2665ZM189.127 9.96816V8.1939L181.99 8.19244V9.96816H184.452V18.8799H186.664V9.96816H189.127Z" fill="white"/>
<path fill-rule="evenodd" clip-rule="evenodd" d="M208.35 8.25928H207.82H206.927H206.418L203.114 18.8346H205.358L205.928 16.6556H208.851L209.425 18.8346H211.684L208.35 8.25928ZM208.387 14.8906H206.39L207.385 11.0883L208.387 14.8906ZM214.814 15.1085H216.296C217.008 15.1085 217.62 14.9705 218.134 14.6945C218.647 14.4185 219.039 14.0312 219.31 13.5324C219.586 13.0288 219.724 12.4357 219.724 11.7529C219.724 11.075 219.586 10.4746 219.31 9.95162C219.039 9.42382 218.647 9.00982 218.134 8.7096C217.62 8.40938 217.008 8.25928 216.296 8.25928H212.693V18.8346H214.814V15.1085ZM214.814 13.3436V10.0243H216.296C216.601 10.0243 216.846 10.1066 217.03 10.2712C217.218 10.4358 217.356 10.6513 217.444 10.9176C217.536 11.1791 217.582 11.4624 217.582 11.7674C217.582 12.0677 217.538 12.3388 217.451 12.5809C217.364 12.8182 217.223 13.0046 217.03 13.1402C216.841 13.2758 216.596 13.3436 216.296 13.3436H214.814ZM224.401 8.25928H223.871H222.977H222.469L219.164 18.8346H221.409L221.979 16.6556H224.902L225.476 18.8346H227.735L224.401 8.25928ZM224.437 14.8906H222.441L223.436 11.0883L224.437 14.8906ZM236.139 8.25928V18.8346H234.083L230.764 12.2178V18.8346H228.745V8.25928H230.771L234.12 14.9487V8.25928H236.139ZM200.149 8.25942V15.5735C200.149 15.9222 200.113 16.22 200.04 16.4669C199.968 16.709 199.861 16.8955 199.721 17.0262C199.585 17.1569 199.418 17.2223 199.219 17.2223C199.035 17.2223 198.871 17.1739 198.726 17.077C198.585 16.9802 198.476 16.8228 198.399 16.6049C198.321 16.387 198.282 16.0892 198.282 15.7115H196.147C196.147 16.4572 196.28 17.0722 196.547 17.5564C196.813 18.0358 197.176 18.3941 197.636 18.6314C198.101 18.8638 198.629 18.98 199.219 18.98C199.796 18.98 200.314 18.8444 200.774 18.5733C201.234 18.3021 201.597 17.9123 201.863 17.4039C202.134 16.8906 202.27 16.2829 202.27 15.5808V8.25942H200.149Z" fill="white"/>
<path d="M79.8546 6.37979C78.7663 0.0805259 60.0189 -1.88933 37.9819 1.9864C29.7301 3.36458 21.6459 5.62128 13.8645 8.71876C14.6582 8.66808 15.4419 8.92055 16.06 9.42611C16.2393 9.62073 16.3781 9.84976 16.4681 10.0996C16.5582 10.3494 16.5976 10.615 16.5841 10.8805V11.5048H14.425V10.9504C14.4332 10.8489 14.419 10.7469 14.3835 10.6517C14.348 10.5564 14.292 10.4703 14.2196 10.3995C14.1473 10.3287 14.0602 10.275 13.9649 10.2422C13.8695 10.2094 13.7681 10.1984 13.668 10.2099C13.4988 10.1893 13.3281 10.2345 13.1907 10.3364C13.0533 10.4383 12.9595 10.5892 12.9284 10.7585C12.9051 10.9036 12.9098 11.0519 12.9422 11.1952C13.173 12.1511 16.3803 12.7393 16.7275 14.504C16.809 14.9682 16.8132 15.4429 16.7399 15.9085C16.536 17.3312 15.3029 17.8798 13.7306 17.8798C11.5336 17.8798 10.6404 16.8283 10.6404 15.3798V14.6989H12.9582L12.9619 15.5526C12.96 15.6577 12.9804 15.762 13.0218 15.8585C13.0632 15.955 13.1246 16.0413 13.2019 16.1118C13.2792 16.1823 13.3705 16.2352 13.4697 16.2669C13.569 16.2987 13.6738 16.3086 13.7771 16.296C13.9552 16.3229 14.1367 16.2807 14.2852 16.178C14.4338 16.0753 14.5383 15.9197 14.5779 15.7423C14.6291 15.5402 14.6226 15.3275 14.559 15.129C14.1317 14.0438 11.1376 13.5371 10.7671 11.782C10.6836 11.401 10.6759 11.0071 10.7445 10.6232C10.7779 10.4124 10.8424 10.2079 10.936 10.0166C3.71773 13.4254 -0.506516 17.1754 0.0525428 20.4158C1.14445 26.718 19.8868 28.6857 41.9223 24.8121C50.4996 23.389 58.8926 21.0024 66.9452 17.6967C66.8484 17.7055 66.7574 17.7121 66.6541 17.7121C65.1465 17.7121 63.7969 17.1415 63.66 15.5857C63.6324 15.304 63.6324 15.1812 63.6273 15.021L63.6324 11.4386C63.6324 11.2916 63.6491 11.0173 63.663 10.8776C63.8464 9.37097 65.0206 8.75111 66.6533 8.75111C67.9163 8.75111 69.4639 9.11508 69.6379 10.8798C69.6597 11.1004 69.6597 11.3371 69.6597 11.4114V11.7526H67.4759V11.2452C67.4736 11.1397 67.4651 11.0343 67.4504 10.9298C67.3952 10.756 67.2868 10.6043 67.1408 10.4968C66.9948 10.3892 66.8188 10.3312 66.638 10.3312C66.4573 10.3312 66.2813 10.3892 66.1353 10.4968C65.9893 10.6043 65.8809 10.756 65.8257 10.9298C65.8033 11.0612 65.7923 11.1943 65.7929 11.3276V15.2173C65.7897 15.3243 65.796 15.4313 65.8119 15.5371C65.8517 15.7242 65.9594 15.8894 66.1138 16.0003C66.2682 16.1112 66.458 16.1598 66.6461 16.1364C66.8336 16.1603 67.0231 16.1119 67.1768 16.0008C67.3305 15.8897 67.4371 15.7241 67.4752 15.5371C67.493 15.4315 67.5001 15.3243 67.4963 15.2173V14.0151H66.6359V12.7151H69.6728V15.0217C69.6744 15.2103 69.6656 15.3988 69.6466 15.5864C69.6142 15.9612 69.4891 16.3218 69.2827 16.6349C76.3109 13.2621 80.4012 9.5695 79.8546 6.37979ZM22.7112 17.5482L21.604 9.96067H21.5647L20.432 17.5489H18.0989L19.6662 8.97758H23.4726L25.0282 17.5489L22.7112 17.5482ZM33.9215 17.5482L33.8683 10.1055H33.8334L32.4605 17.5482H30.2665L28.9074 10.1077H28.8688L28.8171 17.5504H26.6515L26.8393 8.97905H30.3247L31.3387 15.3474H31.3897L32.4088 8.97905H35.8942L36.0776 17.5504L33.9215 17.5482ZM44.1236 15.8864C43.8906 17.5482 42.2797 17.8364 41.1434 17.8364C39.2551 17.8364 38.086 17.0217 38.086 15.3621L38.0911 14.6827H40.3783V15.5268C40.3766 15.6316 40.3973 15.7355 40.4389 15.8314C40.4805 15.9274 40.542 16.0132 40.6194 16.0829C40.6967 16.1527 40.7881 16.2048 40.8872 16.2357C40.9862 16.2667 41.0908 16.2757 41.1936 16.2621C41.3683 16.2883 41.5463 16.2468 41.6921 16.1461C41.8379 16.0453 41.9406 15.8927 41.9798 15.7188C42.034 15.5184 42.0286 15.3065 41.9645 15.1092C41.5416 14.0445 38.5686 13.5246 38.2098 11.796C38.1277 11.4185 38.1213 11.0282 38.1908 10.6482C38.4383 9.08199 39.9306 8.75626 41.1281 8.75626C41.964 8.67605 42.7976 8.9306 43.4495 9.46508C43.6285 9.65635 43.7673 9.88226 43.8575 10.1292C43.9477 10.3761 43.9875 10.639 43.9743 10.9018V11.5239H41.8356V10.9768C41.8432 10.8765 41.8289 10.7758 41.7937 10.6817C41.7584 10.5876 41.7032 10.5025 41.6318 10.4323C41.5604 10.3622 41.4746 10.3088 41.3806 10.2758C41.2865 10.2428 41.1864 10.2311 41.0873 10.2416C40.9183 10.22 40.7476 10.2647 40.6103 10.3665C40.473 10.4682 40.3795 10.6193 40.3492 10.7886C40.3227 10.9299 40.3262 11.0752 40.3594 11.2151C40.5923 12.1665 43.7683 12.7482 44.117 14.493C44.1934 14.9539 44.1949 15.4243 44.1214 15.8857L44.1236 15.8864ZM52.0508 15.1114C52.0567 15.2702 52.0392 15.5901 52.0297 15.6739C51.8994 17.0827 50.8992 17.8026 49.0641 17.8026C47.229 17.8026 46.2251 17.0827 46.0941 15.6739C46.089 15.5901 46.0715 15.2702 46.0752 15.1114V8.97538H48.259V15.304C48.2538 15.4102 48.2612 15.5166 48.2808 15.621C48.3137 15.8009 48.4117 15.9621 48.5559 16.0729C48.7001 16.1837 48.88 16.2362 49.0605 16.2202C49.242 16.2357 49.4228 16.1832 49.5685 16.0727C49.7141 15.9622 49.8144 15.8014 49.8503 15.621C49.8616 15.5157 49.8663 15.4099 49.8641 15.304V8.97538H52.0479L52.0508 15.1114ZM61.482 17.4599H58.4378L56.3923 10.6732H56.3595L56.4694 17.4599H54.3446V8.97685H57.5177L59.4103 15.4989H59.4533L59.3433 8.97685H61.4777L61.482 17.4599Z" fill="white"/>
</svg>
