<svg width="38" height="38" viewBox="0 0 38 38" fill="none" xmlns="http://www.w3.org/2000/svg">
<g id="ico3" clip-path="url(#clip0_393_2226)">
<g id="Group 729">
<g id="Group 500">
<path id="Rectangle 340" d="M14.6563 3.94524V3.94524C23.4407 1.59146 32.47 6.80452 34.8238 15.5889L34.9877 16.2007C37.3415 24.9851 32.1284 34.0144 23.344 36.3681V36.3681C14.5596 38.7219 5.53031 33.5089 3.17654 24.7244L3.09458 24.4186" stroke="#004098" stroke-width="2" stroke-linecap="round"/>
<path id="Union" fill-rule="evenodd" clip-rule="evenodd" d="M15.9016 7.42845C16.2454 7.66917 16.7193 7.58556 16.96 7.24172C17.2008 6.89787 17.1172 6.42398 16.7733 6.18326L13.9553 4.21047L15.9285 1.39202C16.1692 1.04817 16.0856 0.574283 15.7418 0.333562C15.3979 0.0928415 14.924 0.176444 14.6833 0.520293L12.2751 3.96022C12.1982 4.07005 12.1544 4.19316 12.1416 4.31769C12.1137 4.58352 12.2272 4.85609 12.4617 5.02024L15.9016 7.42845Z" fill="#004098"/>
<path id="Union_2" fill-rule="evenodd" clip-rule="evenodd" d="M26.6242 32.3385C26.5353 32.7487 26.1306 33.0092 25.7204 32.9203C25.3102 32.8314 25.0498 32.4267 25.1387 32.0165L25.8675 28.6546L22.5049 27.9257C22.0947 27.8367 21.8343 27.4321 21.9232 27.0219C22.0121 26.6117 22.4167 26.3512 22.827 26.4402L26.9308 27.3298C27.0697 27.3599 27.1914 27.4262 27.2882 27.5167C27.4782 27.6934 27.5727 27.9628 27.5138 28.2347L26.6242 32.3385Z" fill="black"/>
</g>
<circle id="Ellipse 60" cx="18.9999" cy="20.4733" r="10.4" stroke="black" stroke-width="2"/>
<circle id="Ellipse 61" cx="19" cy="20.4733" r="0.76" fill="black" stroke="black" stroke-width="0.38"/>
<circle id="Ellipse 62" cx="2.66015" cy="21.2333" r="0.76" fill="#004098"/>
<circle id="Ellipse 64" cx="2.66015" cy="18.0667" r="0.76" fill="#004098"/>
</g>
</g>
<defs>
<clipPath id="clip0_393_2226">
<rect width="38" height="38" fill="white"/>
</clipPath>
</defs>
</svg>
