<svg width="36" height="36" viewBox="0 0 36 36" fill="none" xmlns="http://www.w3.org/2000/svg">
<path d="M7.09961 9.35363L17.9003 5.75818L28.7009 9.35363V13.7442C28.7009 13.7444 28.7009 13.7445 28.7009 13.7446C28.6984 21.2568 24.691 26.436 17.9003 30.2278C11.1094 26.4361 7.10198 21.2569 7.09961 13.7446C7.09961 13.7445 7.09961 13.7444 7.09961 13.7443V9.35363Z" stroke="#131B2C" stroke-width="2.5"/>
<path d="M7.09961 9.35363L17.9003 5.75818L28.7009 9.35363V13.7442C28.7009 13.7444 28.7009 13.7445 28.7009 13.7446C28.6984 21.2568 24.691 26.436 17.9003 30.2278C11.1094 26.4361 7.10198 21.2569 7.09961 13.7446C7.09961 13.7445 7.09961 13.7444 7.09961 13.7443V9.35363Z" stroke="black" stroke-opacity="0.2" stroke-width="2.5"/>
<path d="M7.09961 9.35363L17.9003 5.75818L28.7009 9.35363V13.7442C28.7009 13.7444 28.7009 13.7445 28.7009 13.7446C28.6984 21.2568 24.691 26.436 17.9003 30.2278C11.1094 26.4361 7.10198 21.2569 7.09961 13.7446C7.09961 13.7445 7.09961 13.7444 7.09961 13.7443V9.35363Z" stroke="black" stroke-opacity="0.2" stroke-width="2.5"/>
<path d="M7.09961 9.35363L17.9003 5.75818L28.7009 9.35363V13.7442C28.7009 13.7444 28.7009 13.7445 28.7009 13.7446C28.6984 21.2568 24.691 26.436 17.9003 30.2278C11.1094 26.4361 7.10198 21.2569 7.09961 13.7446C7.09961 13.7445 7.09961 13.7444 7.09961 13.7443V9.35363Z" stroke="black" stroke-opacity="0.2" stroke-width="2.5"/>
<path d="M7.09961 9.35363L17.9003 5.75818L28.7009 9.35363V13.7442C28.7009 13.7444 28.7009 13.7445 28.7009 13.7446C28.6984 21.2568 24.691 26.436 17.9003 30.2278C11.1094 26.4361 7.10198 21.2569 7.09961 13.7446C7.09961 13.7445 7.09961 13.7444 7.09961 13.7443V9.35363Z" stroke="black" stroke-opacity="0.2" stroke-width="2.5"/>
<path d="M7.09961 9.35363L17.9003 5.75818L28.7009 9.35363V13.7442C28.7009 13.7444 28.7009 13.7445 28.7009 13.7446C28.6984 21.2568 24.691 26.436 17.9003 30.2278C11.1094 26.4361 7.10198 21.2569 7.09961 13.7446C7.09961 13.7445 7.09961 13.7444 7.09961 13.7443V9.35363Z" stroke="black" stroke-opacity="0.2" stroke-width="2.5"/>
<path d="M13.0938 16.795L17.1616 19.9568L22.7549 14.1602" stroke="#004098" stroke-width="2.5" stroke-linecap="round" stroke-linejoin="round"/>
</svg>
