<svg width="16" height="16" viewBox="0 0 16 16" fill="none" xmlns="http://www.w3.org/2000/svg">
<g id="Group 814">
<mask id="mask0_1027_10155" style="mask-type:alpha" maskUnits="userSpaceOnUse" x="0" y="0" width="16" height="16">
<rect id="Rectangle 501" x="0.537109" y="0.536133" width="14.9273" height="14.9273" fill="#D9D9D9"/>
</mask>
<g mask="url(#mask0_1027_10155)">
<g id="Subtract">
<mask id="path-2-inside-1_1027_10155" fill="white">
<path fill-rule="evenodd" clip-rule="evenodd" d="M13.7723 10.0904C13.878 9.84889 13.6188 9.62234 13.3718 9.71447C12.7223 9.95671 12.0193 10.0891 11.2854 10.0891C7.98773 10.0891 5.31445 7.41586 5.31445 4.11821C5.31445 3.76182 5.34568 3.41272 5.40554 3.07351C5.45135 2.81389 5.1815 2.6 4.96299 2.74748C3.3734 3.82029 2.32812 5.6382 2.32812 7.70024C2.32812 10.9979 5.0014 13.6712 8.29905 13.6712C10.7468 13.6712 12.8505 12.1983 13.7723 10.0904Z"/>
</mask>
<path d="M4.96299 2.74748L4.49536 2.05459L4.96299 2.74748ZM13.3718 9.71447L13.0797 8.93124L13.3718 9.71447ZM13.7723 10.0904L14.5382 10.4254L13.7723 10.0904ZM13.0797 8.93124C12.5222 9.13916 11.9181 9.2532 11.2854 9.2532V10.9251C12.1205 10.9251 12.9224 10.7743 13.6639 10.4977L13.0797 8.93124ZM11.2854 9.2532C8.4494 9.2532 6.15038 6.95419 6.15038 4.11821H4.47852C4.47852 7.87753 7.52605 10.9251 11.2854 10.9251V9.2532ZM6.15038 4.11821C6.15038 3.81074 6.17731 3.51025 6.22875 3.21878L4.58233 2.92824C4.51404 3.3152 4.47852 3.7129 4.47852 4.11821H6.15038ZM3.16405 7.70024C3.16405 5.92767 4.06148 4.36441 5.43062 3.44037L4.49536 2.05459C2.68532 3.27618 1.4922 5.34873 1.4922 7.70024H3.16405ZM8.29905 12.8352C5.46307 12.8352 3.16405 10.5362 3.16405 7.70024H1.4922C1.4922 11.4596 4.53973 14.5071 8.29905 14.5071V12.8352ZM13.0064 9.75549C12.2129 11.57 10.4028 12.8352 8.29905 12.8352V14.5071C11.0908 14.5071 13.4882 12.8266 14.5382 10.4254L13.0064 9.75549ZM6.22875 3.21878C6.30966 2.76026 6.1107 2.33596 5.7883 2.09162C5.45151 1.83638 4.93818 1.75573 4.49536 2.05459L5.43062 3.44037C5.20631 3.59176 4.93716 3.54431 4.77848 3.42405C4.63417 3.31468 4.54723 3.12713 4.58233 2.92824L6.22875 3.21878ZM13.6639 10.4977C13.4748 10.5682 13.2745 10.5169 13.1406 10.3946C12.9933 10.26 12.898 10.0035 13.0064 9.75549L14.5382 10.4254C14.7523 9.93579 14.5803 9.44526 14.268 9.16009C13.9692 8.88716 13.5158 8.76857 13.0797 8.93124L13.6639 10.4977Z" fill="black" mask="url(#path-2-inside-1_1027_10155)"/>
</g>
<path id="Star 1" d="M10.4161 6.28329C10.4463 6.09435 10.3838 5.90176 10.2483 5.76664C10.4373 5.73696 10.6011 5.61794 10.6878 5.44733C10.7744 5.61794 10.9382 5.73696 11.1272 5.76664C10.9918 5.90176 10.9292 6.09435 10.9594 6.28329C10.789 6.19619 10.5865 6.19619 10.4161 6.28329Z" fill="#D9D9D9" stroke="black" stroke-width="0.835929"/>
<path id="Star 2" d="M7.76628 2.35933C7.76635 2.35955 7.76642 2.35977 7.7665 2.35999L7.76628 2.35933Z" fill="black" stroke="black" stroke-width="0.835929"/>
</g>
</g>
</svg>
