<svg width="36" height="36" viewBox="0 0 36 36" fill="none" xmlns="http://www.w3.org/2000/svg">
<path d="M8.90336 5.73481C9.07579 5.20413 9.82655 5.20413 9.99898 5.73481L10.8373 8.31496C10.9144 8.55228 11.1356 8.71296 11.3851 8.71296H14.0981C14.656 8.71296 14.888 9.42698 14.4366 9.75496L12.2418 11.3496C12.0399 11.4963 11.9555 11.7562 12.0326 11.9936L12.8709 14.5737C13.0433 15.1044 12.436 15.5457 11.9845 15.2177L9.78974 13.6231C9.58786 13.4764 9.31449 13.4764 9.11261 13.6231L6.9178 15.2177C6.46638 15.5457 5.859 15.1044 6.03143 14.5737L6.86977 11.9936C6.94688 11.7562 6.86241 11.4963 6.66053 11.3496L4.46572 9.75496C4.0143 9.42698 4.2463 8.71296 4.80429 8.71296H7.51721C7.76675 8.71296 7.98791 8.55228 8.06502 8.31496L8.90336 5.73481Z" stroke="#004098" stroke-width="1.44"/>
<path d="M18.002 8.54883H31.502" stroke="#131B2C" stroke-width="1.44" stroke-linecap="round"/>
<path d="M18.002 8.54883H31.502" stroke="black" stroke-opacity="0.2" stroke-width="1.44" stroke-linecap="round"/>
<path d="M18.002 8.54883H31.502" stroke="black" stroke-opacity="0.2" stroke-width="1.44" stroke-linecap="round"/>
<path d="M18.002 8.54883H31.502" stroke="black" stroke-opacity="0.2" stroke-width="1.44" stroke-linecap="round"/>
<path d="M18.002 8.54883H31.502" stroke="black" stroke-opacity="0.2" stroke-width="1.44" stroke-linecap="round"/>
<path d="M18.002 8.54883H31.502" stroke="black" stroke-opacity="0.2" stroke-width="1.44" stroke-linecap="round"/>
<path d="M18.002 13.0488H26.102" stroke="#131B2C" stroke-width="1.44" stroke-linecap="round"/>
<path d="M18.002 13.0488H26.102" stroke="black" stroke-opacity="0.2" stroke-width="1.44" stroke-linecap="round"/>
<path d="M18.002 13.0488H26.102" stroke="black" stroke-opacity="0.2" stroke-width="1.44" stroke-linecap="round"/>
<path d="M18.002 13.0488H26.102" stroke="black" stroke-opacity="0.2" stroke-width="1.44" stroke-linecap="round"/>
<path d="M18.002 13.0488H26.102" stroke="black" stroke-opacity="0.2" stroke-width="1.44" stroke-linecap="round"/>
<path d="M18.002 13.0488H26.102" stroke="black" stroke-opacity="0.2" stroke-width="1.44" stroke-linecap="round"/>
<path d="M18.002 22.9492H31.502" stroke="#131B2C" stroke-width="1.44" stroke-linecap="round"/>
<path d="M18.002 22.9492H31.502" stroke="black" stroke-opacity="0.2" stroke-width="1.44" stroke-linecap="round"/>
<path d="M18.002 22.9492H31.502" stroke="black" stroke-opacity="0.2" stroke-width="1.44" stroke-linecap="round"/>
<path d="M18.002 22.9492H31.502" stroke="black" stroke-opacity="0.2" stroke-width="1.44" stroke-linecap="round"/>
<path d="M18.002 22.9492H31.502" stroke="black" stroke-opacity="0.2" stroke-width="1.44" stroke-linecap="round"/>
<path d="M18.002 22.9492H31.502" stroke="black" stroke-opacity="0.2" stroke-width="1.44" stroke-linecap="round"/>
<path d="M18.002 27.4492H26.102" stroke="#131B2C" stroke-width="1.44" stroke-linecap="round"/>
<path d="M18.002 27.4492H26.102" stroke="black" stroke-opacity="0.2" stroke-width="1.44" stroke-linecap="round"/>
<path d="M18.002 27.4492H26.102" stroke="black" stroke-opacity="0.2" stroke-width="1.44" stroke-linecap="round"/>
<path d="M18.002 27.4492H26.102" stroke="black" stroke-opacity="0.2" stroke-width="1.44" stroke-linecap="round"/>
<path d="M18.002 27.4492H26.102" stroke="black" stroke-opacity="0.2" stroke-width="1.44" stroke-linecap="round"/>
<path d="M18.002 27.4492H26.102" stroke="black" stroke-opacity="0.2" stroke-width="1.44" stroke-linecap="round"/>
<path d="M8.90336 20.1352C9.07579 19.6045 9.82655 19.6045 9.99898 20.1352L10.8373 22.7153C10.9144 22.9527 11.1356 23.1134 11.3851 23.1134H14.0981C14.656 23.1134 14.888 23.8274 14.4366 24.1553L12.2418 25.75C12.0399 25.8966 11.9555 26.1566 12.0326 26.394L12.8709 28.9741C13.0433 29.5048 12.436 29.9461 11.9845 29.6181L9.78974 28.0235C9.58786 27.8768 9.31449 27.8768 9.11261 28.0235L6.9178 29.6181C6.46638 29.9461 5.859 29.5048 6.03143 28.9741L6.86977 26.394C6.94688 26.1566 6.86241 25.8966 6.66053 25.75L4.46572 24.1553C4.0143 23.8274 4.2463 23.1134 4.80429 23.1134H7.51721C7.76675 23.1134 7.98791 22.9527 8.06502 22.7153L8.90336 20.1352Z" stroke="#004098" stroke-width="1.44"/>
</svg>
