<svg width="36" height="36" viewBox="0 0 36 36" fill="none" xmlns="http://www.w3.org/2000/svg">
<path d="M12.4006 24.4297C10.1373 25.1479 8.68555 26.2583 8.68555 27.5043C8.68555 29.6699 13.0705 31.4255 18.4797 31.4255C23.8889 31.4255 28.2739 29.6699 28.2739 27.5043C28.2739 26.2583 26.8221 25.1479 24.5589 24.4297" stroke="#131B2C" stroke-width="1.84854" stroke-linecap="round"/>
<path d="M12.4006 24.4297C10.1373 25.1479 8.68555 26.2583 8.68555 27.5043C8.68555 29.6699 13.0705 31.4255 18.4797 31.4255C23.8889 31.4255 28.2739 29.6699 28.2739 27.5043C28.2739 26.2583 26.8221 25.1479 24.5589 24.4297" stroke="black" stroke-opacity="0.2" stroke-width="1.84854" stroke-linecap="round"/>
<path d="M12.4006 24.4297C10.1373 25.1479 8.68555 26.2583 8.68555 27.5043C8.68555 29.6699 13.0705 31.4255 18.4797 31.4255C23.8889 31.4255 28.2739 29.6699 28.2739 27.5043C28.2739 26.2583 26.8221 25.1479 24.5589 24.4297" stroke="black" stroke-opacity="0.2" stroke-width="1.84854" stroke-linecap="round"/>
<path d="M12.4006 24.4297C10.1373 25.1479 8.68555 26.2583 8.68555 27.5043C8.68555 29.6699 13.0705 31.4255 18.4797 31.4255C23.8889 31.4255 28.2739 29.6699 28.2739 27.5043C28.2739 26.2583 26.8221 25.1479 24.5589 24.4297" stroke="black" stroke-opacity="0.2" stroke-width="1.84854" stroke-linecap="round"/>
<path d="M12.4006 24.4297C10.1373 25.1479 8.68555 26.2583 8.68555 27.5043C8.68555 29.6699 13.0705 31.4255 18.4797 31.4255C23.8889 31.4255 28.2739 29.6699 28.2739 27.5043C28.2739 26.2583 26.8221 25.1479 24.5589 24.4297" stroke="black" stroke-opacity="0.2" stroke-width="1.84854" stroke-linecap="round"/>
<path d="M12.4006 24.4297C10.1373 25.1479 8.68555 26.2583 8.68555 27.5043C8.68555 29.6699 13.0705 31.4255 18.4797 31.4255C23.8889 31.4255 28.2739 29.6699 28.2739 27.5043C28.2739 26.2583 26.8221 25.1479 24.5589 24.4297" stroke="black" stroke-opacity="0.2" stroke-width="1.84854" stroke-linecap="round"/>
<mask id="path-2-outside-1_848_2212" maskUnits="userSpaceOnUse" x="9.48267" y="3.54102" width="18" height="24" fill="black">
<rect fill="white" x="9.48267" y="3.54102" width="18" height="24"/>
<path fill-rule="evenodd" clip-rule="evenodd" d="M24.5386 16.0344C25.1337 15.0055 25.4743 13.8109 25.4743 12.5368C25.4743 8.67316 22.3422 5.54102 18.4785 5.54102C14.6148 5.54102 11.4827 8.67316 11.4827 12.5368C11.4827 13.8493 11.8441 15.0773 12.4728 16.1268L16.855 24.2231C17.5541 25.5146 19.4073 25.5146 20.1064 24.2231L24.5386 16.0344Z"/>
</mask>
<path d="M24.5386 16.0344L22.9385 15.1089L22.9254 15.1315L22.913 15.1545L24.5386 16.0344ZM12.4728 16.1268L14.0985 15.2469L14.0793 15.2114L14.0585 15.1769L12.4728 16.1268ZM16.855 24.2231L18.4807 23.3432L18.4807 23.3432L16.855 24.2231ZM20.1064 24.2231L21.732 25.103H21.732L20.1064 24.2231ZM23.6258 12.5368C23.6258 13.4774 23.3752 14.3537 22.9385 15.1089L26.1388 16.9599C26.8922 15.6572 27.3229 14.1445 27.3229 12.5368H23.6258ZM18.4785 7.38955C21.3213 7.38955 23.6258 9.69407 23.6258 12.5368H27.3229C27.3229 7.65224 23.3631 3.69248 18.4785 3.69248V7.38955ZM13.3312 12.5368C13.3312 9.69408 15.6357 7.38955 18.4785 7.38955V3.69248C13.5939 3.69248 9.63413 7.65224 9.63413 12.5368H13.3312ZM14.0585 15.1769C13.597 14.4064 13.3312 13.5055 13.3312 12.5368H9.63413C9.63413 14.1931 10.0911 15.7482 10.887 17.0768L14.0585 15.1769ZM10.8471 17.0067L15.2293 25.103L18.4807 23.3432L14.0985 15.2469L10.8471 17.0067ZM15.2293 25.103C16.6274 27.686 20.334 27.686 21.732 25.103L18.4807 23.3432L18.4807 23.3432L15.2293 25.103ZM21.732 25.103L26.1643 16.9143L22.913 15.1545L18.4807 23.3432L21.732 25.103Z" fill="#131B2C" mask="url(#path-2-outside-1_848_2212)"/>
<path d="M24.5386 16.0344L22.9385 15.1089L22.9254 15.1315L22.913 15.1545L24.5386 16.0344ZM12.4728 16.1268L14.0985 15.2469L14.0793 15.2114L14.0585 15.1769L12.4728 16.1268ZM16.855 24.2231L18.4807 23.3432L18.4807 23.3432L16.855 24.2231ZM20.1064 24.2231L21.732 25.103H21.732L20.1064 24.2231ZM23.6258 12.5368C23.6258 13.4774 23.3752 14.3537 22.9385 15.1089L26.1388 16.9599C26.8922 15.6572 27.3229 14.1445 27.3229 12.5368H23.6258ZM18.4785 7.38955C21.3213 7.38955 23.6258 9.69407 23.6258 12.5368H27.3229C27.3229 7.65224 23.3631 3.69248 18.4785 3.69248V7.38955ZM13.3312 12.5368C13.3312 9.69408 15.6357 7.38955 18.4785 7.38955V3.69248C13.5939 3.69248 9.63413 7.65224 9.63413 12.5368H13.3312ZM14.0585 15.1769C13.597 14.4064 13.3312 13.5055 13.3312 12.5368H9.63413C9.63413 14.1931 10.0911 15.7482 10.887 17.0768L14.0585 15.1769ZM10.8471 17.0067L15.2293 25.103L18.4807 23.3432L14.0985 15.2469L10.8471 17.0067ZM15.2293 25.103C16.6274 27.686 20.334 27.686 21.732 25.103L18.4807 23.3432L18.4807 23.3432L15.2293 25.103ZM21.732 25.103L26.1643 16.9143L22.913 15.1545L18.4807 23.3432L21.732 25.103Z" fill="black" fill-opacity="0.2" mask="url(#path-2-outside-1_848_2212)"/>
<path d="M24.5386 16.0344L22.9385 15.1089L22.9254 15.1315L22.913 15.1545L24.5386 16.0344ZM12.4728 16.1268L14.0985 15.2469L14.0793 15.2114L14.0585 15.1769L12.4728 16.1268ZM16.855 24.2231L18.4807 23.3432L18.4807 23.3432L16.855 24.2231ZM20.1064 24.2231L21.732 25.103H21.732L20.1064 24.2231ZM23.6258 12.5368C23.6258 13.4774 23.3752 14.3537 22.9385 15.1089L26.1388 16.9599C26.8922 15.6572 27.3229 14.1445 27.3229 12.5368H23.6258ZM18.4785 7.38955C21.3213 7.38955 23.6258 9.69407 23.6258 12.5368H27.3229C27.3229 7.65224 23.3631 3.69248 18.4785 3.69248V7.38955ZM13.3312 12.5368C13.3312 9.69408 15.6357 7.38955 18.4785 7.38955V3.69248C13.5939 3.69248 9.63413 7.65224 9.63413 12.5368H13.3312ZM14.0585 15.1769C13.597 14.4064 13.3312 13.5055 13.3312 12.5368H9.63413C9.63413 14.1931 10.0911 15.7482 10.887 17.0768L14.0585 15.1769ZM10.8471 17.0067L15.2293 25.103L18.4807 23.3432L14.0985 15.2469L10.8471 17.0067ZM15.2293 25.103C16.6274 27.686 20.334 27.686 21.732 25.103L18.4807 23.3432L18.4807 23.3432L15.2293 25.103ZM21.732 25.103L26.1643 16.9143L22.913 15.1545L18.4807 23.3432L21.732 25.103Z" fill="black" fill-opacity="0.2" mask="url(#path-2-outside-1_848_2212)"/>
<path d="M24.5386 16.0344L22.9385 15.1089L22.9254 15.1315L22.913 15.1545L24.5386 16.0344ZM12.4728 16.1268L14.0985 15.2469L14.0793 15.2114L14.0585 15.1769L12.4728 16.1268ZM16.855 24.2231L18.4807 23.3432L18.4807 23.3432L16.855 24.2231ZM20.1064 24.2231L21.732 25.103H21.732L20.1064 24.2231ZM23.6258 12.5368C23.6258 13.4774 23.3752 14.3537 22.9385 15.1089L26.1388 16.9599C26.8922 15.6572 27.3229 14.1445 27.3229 12.5368H23.6258ZM18.4785 7.38955C21.3213 7.38955 23.6258 9.69407 23.6258 12.5368H27.3229C27.3229 7.65224 23.3631 3.69248 18.4785 3.69248V7.38955ZM13.3312 12.5368C13.3312 9.69408 15.6357 7.38955 18.4785 7.38955V3.69248C13.5939 3.69248 9.63413 7.65224 9.63413 12.5368H13.3312ZM14.0585 15.1769C13.597 14.4064 13.3312 13.5055 13.3312 12.5368H9.63413C9.63413 14.1931 10.0911 15.7482 10.887 17.0768L14.0585 15.1769ZM10.8471 17.0067L15.2293 25.103L18.4807 23.3432L14.0985 15.2469L10.8471 17.0067ZM15.2293 25.103C16.6274 27.686 20.334 27.686 21.732 25.103L18.4807 23.3432L18.4807 23.3432L15.2293 25.103ZM21.732 25.103L26.1643 16.9143L22.913 15.1545L18.4807 23.3432L21.732 25.103Z" fill="black" fill-opacity="0.2" mask="url(#path-2-outside-1_848_2212)"/>
<path d="M24.5386 16.0344L22.9385 15.1089L22.9254 15.1315L22.913 15.1545L24.5386 16.0344ZM12.4728 16.1268L14.0985 15.2469L14.0793 15.2114L14.0585 15.1769L12.4728 16.1268ZM16.855 24.2231L18.4807 23.3432L18.4807 23.3432L16.855 24.2231ZM20.1064 24.2231L21.732 25.103H21.732L20.1064 24.2231ZM23.6258 12.5368C23.6258 13.4774 23.3752 14.3537 22.9385 15.1089L26.1388 16.9599C26.8922 15.6572 27.3229 14.1445 27.3229 12.5368H23.6258ZM18.4785 7.38955C21.3213 7.38955 23.6258 9.69407 23.6258 12.5368H27.3229C27.3229 7.65224 23.3631 3.69248 18.4785 3.69248V7.38955ZM13.3312 12.5368C13.3312 9.69408 15.6357 7.38955 18.4785 7.38955V3.69248C13.5939 3.69248 9.63413 7.65224 9.63413 12.5368H13.3312ZM14.0585 15.1769C13.597 14.4064 13.3312 13.5055 13.3312 12.5368H9.63413C9.63413 14.1931 10.0911 15.7482 10.887 17.0768L14.0585 15.1769ZM10.8471 17.0067L15.2293 25.103L18.4807 23.3432L14.0985 15.2469L10.8471 17.0067ZM15.2293 25.103C16.6274 27.686 20.334 27.686 21.732 25.103L18.4807 23.3432L18.4807 23.3432L15.2293 25.103ZM21.732 25.103L26.1643 16.9143L22.913 15.1545L18.4807 23.3432L21.732 25.103Z" fill="black" fill-opacity="0.2" mask="url(#path-2-outside-1_848_2212)"/>
<path d="M24.5386 16.0344L22.9385 15.1089L22.9254 15.1315L22.913 15.1545L24.5386 16.0344ZM12.4728 16.1268L14.0985 15.2469L14.0793 15.2114L14.0585 15.1769L12.4728 16.1268ZM16.855 24.2231L18.4807 23.3432L18.4807 23.3432L16.855 24.2231ZM20.1064 24.2231L21.732 25.103H21.732L20.1064 24.2231ZM23.6258 12.5368C23.6258 13.4774 23.3752 14.3537 22.9385 15.1089L26.1388 16.9599C26.8922 15.6572 27.3229 14.1445 27.3229 12.5368H23.6258ZM18.4785 7.38955C21.3213 7.38955 23.6258 9.69407 23.6258 12.5368H27.3229C27.3229 7.65224 23.3631 3.69248 18.4785 3.69248V7.38955ZM13.3312 12.5368C13.3312 9.69408 15.6357 7.38955 18.4785 7.38955V3.69248C13.5939 3.69248 9.63413 7.65224 9.63413 12.5368H13.3312ZM14.0585 15.1769C13.597 14.4064 13.3312 13.5055 13.3312 12.5368H9.63413C9.63413 14.1931 10.0911 15.7482 10.887 17.0768L14.0585 15.1769ZM10.8471 17.0067L15.2293 25.103L18.4807 23.3432L14.0985 15.2469L10.8471 17.0067ZM15.2293 25.103C16.6274 27.686 20.334 27.686 21.732 25.103L18.4807 23.3432L18.4807 23.3432L15.2293 25.103ZM21.732 25.103L26.1643 16.9143L22.913 15.1545L18.4807 23.3432L21.732 25.103Z" fill="black" fill-opacity="0.2" mask="url(#path-2-outside-1_848_2212)"/>
<circle cx="18.4788" cy="12.5334" r="3.27323" stroke="#004098" stroke-width="1.84854"/>
</svg>
