<svg width="60" height="60" viewBox="0 0 60 60" fill="none" xmlns="http://www.w3.org/2000/svg">
<path d="M34.5 6.75H13.5C11.2909 6.75 9.5 8.54086 9.5 10.75V46.25C9.5 48.4591 11.2909 50.25 13.5 50.25H42.5C44.7091 50.25 46.5 48.4591 46.5 46.25V19.75" stroke="#131B2C" stroke-width="2.4" stroke-linecap="round"/>
<path d="M14 54.5H47C49.2091 54.5 51 52.7091 51 50.5V20.5" stroke="#131B2C" stroke-width="2.4" stroke-linecap="round"/>
<path d="M23.5157 23.75C23.389 22.4167 23.972 19.75 27.3178 19.75C30.6636 19.75 31.5 22.4167 31.5 23.75" stroke="#004098" stroke-width="2.4" stroke-linecap="round"/>
<path d="M18.7 29.75C18.7 28.2036 19.9536 26.95 21.5 26.95H33.5C35.0464 26.95 36.3 28.2036 36.3 29.75V38.75C36.3 40.2964 35.0464 41.55 33.5 41.55H21.5C19.9536 41.55 18.7 40.2964 18.7 38.75V29.75Z" stroke="#004098" stroke-width="2.4"/>
<path d="M37.523 19.2537C35.6377 19.4795 34.0791 17.8031 34.4415 15.9392L35.9254 8.30656L45.1763 18.337L37.523 19.2537Z" stroke="#131B2C" stroke-width="2.4"/>
<path fill-rule="evenodd" clip-rule="evenodd" d="M28.5 34.5161C29.2409 34.1479 29.75 33.3834 29.75 32.5C29.75 31.2574 28.7426 30.25 27.5 30.25C26.2574 30.25 25.25 31.2574 25.25 32.5C25.25 33.3834 25.7591 34.1479 26.5 34.5161V37.25C26.5 37.8023 26.9477 38.25 27.5 38.25C28.0523 38.25 28.5 37.8023 28.5 37.25V34.5161Z" fill="#004098"/>
</svg>
