<svg width="60" height="60" viewBox="0 0 60 60" fill="none" xmlns="http://www.w3.org/2000/svg">
<mask id="path-1-outside-1_687_1049" maskUnits="userSpaceOnUse" x="20.2271" y="35" width="20" height="9" fill="black">
<rect fill="white" x="20.2271" y="35" width="20" height="9"/>
<path fill-rule="evenodd" clip-rule="evenodd" d="M21.2271 36C22.1464 39.9889 25.7485 43 30.0001 43C34.2517 43 37.8539 39.9889 38.7732 36H36.8003C35.933 38.9349 33.2088 41.0885 30.0001 41.0885C26.7914 41.0885 24.0673 38.9349 23.2 36H21.2271Z"/>
</mask>
<path fill-rule="evenodd" clip-rule="evenodd" d="M21.2271 36C22.1464 39.9889 25.7485 43 30.0001 43C34.2517 43 37.8539 39.9889 38.7732 36H36.8003C35.933 38.9349 33.2088 41.0885 30.0001 41.0885C26.7914 41.0885 24.0673 38.9349 23.2 36H21.2271Z" fill="#004098"/>
<path d="M21.2271 36V35.4H20.473L20.6424 36.1348L21.2271 36ZM38.7732 36L39.3579 36.1348L39.5272 35.4H38.7732V36ZM36.8003 36V35.4H36.352L36.2249 35.83L36.8003 36ZM23.2 36L23.7754 35.83L23.6483 35.4H23.2V36ZM30.0001 42.4C26.0362 42.4 22.6701 39.5899 21.8117 35.8652L20.6424 36.1348C21.6226 40.3879 25.4609 43.6 30.0001 43.6V42.4ZM38.1885 35.8652C37.3301 39.5899 33.9641 42.4 30.0001 42.4V43.6C34.5394 43.6 38.3776 40.3879 39.3579 36.1348L38.1885 35.8652ZM38.7732 35.4H36.8003V36.6H38.7732V35.4ZM30.0001 41.6885C33.483 41.6885 36.4354 39.3519 37.3757 36.17L36.2249 35.83C35.4305 38.518 32.9346 40.4885 30.0001 40.4885V41.6885ZM22.6246 36.17C23.5649 39.3519 26.5172 41.6885 30.0001 41.6885V40.4885C27.0656 40.4885 24.5697 38.518 23.7754 35.83L22.6246 36.17ZM23.2 35.4H21.2271V36.6H23.2V35.4Z" fill="#004098" mask="url(#path-1-outside-1_687_1049)"/>
<path fill-rule="evenodd" clip-rule="evenodd" d="M9 36V39L14.1176 40.6765C14.3824 41.8235 14.9118 42.8824 15.4412 43.9412L12.9706 48.7941L17.2059 53.0294L22.0588 50.5588C23.1176 51.0882 24.1765 51.5294 25.3235 51.8824L27 57H33L34.6765 51.8824C35.8235 51.6177 36.8823 51.0883 37.9411 50.5589L37.9412 50.5588L42.7941 53.0294L47.0294 48.7941L44.5588 43.9412C45.0882 42.8824 45.5294 41.8235 45.8824 40.6765L51 39V36H49.0588V37.4118L44.2941 39L44.1176 39.5294C43.7647 40.853 43.2353 42.1765 42.5294 43.3235L42.2647 43.8529L44.5588 48.353L42.4412 50.4706L37.9412 48.1765L37.4118 48.4412C36.1765 49.1471 34.9412 49.6765 33.6177 50.0294L33.0882 50.2059L31.5 54.9706H28.5L26.9118 50.2059L26.3823 50.0294C25.0588 49.6765 23.7353 49.1471 22.5882 48.4412L22.0588 48.1765L17.5588 50.4706L15.4412 48.353L17.7353 43.8529L17.4706 43.3235C16.7647 42.1765 16.2353 40.853 15.8824 39.5294L15.7059 39L10.9412 37.4118V36H9Z" fill="#004098"/>
<path d="M9 39H8.7V39.2174L8.90661 39.2851L9 39ZM9 36V35.7H8.7V36H9ZM14.1176 40.6765L14.41 40.609L14.3719 40.4441L14.211 40.3914L14.1176 40.6765ZM15.4412 43.9412L15.7085 44.0773L15.7772 43.9424L15.7095 43.807L15.4412 43.9412ZM12.9706 48.7941L12.7032 48.658L12.6044 48.8522L12.7585 49.0063L12.9706 48.7941ZM17.2059 53.0294L16.9938 53.2415L17.1478 53.3956L17.342 53.2968L17.2059 53.0294ZM22.0588 50.5588L22.193 50.2905L22.0576 50.2228L21.9227 50.2915L22.0588 50.5588ZM25.3235 51.8824L25.6086 51.789L25.5603 51.6413L25.4118 51.5956L25.3235 51.8824ZM27 57L26.7149 57.0934L26.7826 57.3H27V57ZM33 57V57.3H33.2174L33.2851 57.0934L33 57ZM34.6765 51.8824L34.609 51.59L34.4441 51.6281L34.3914 51.789L34.6765 51.8824ZM37.9412 50.5588L38.0773 50.2915L37.9424 50.2228L37.807 50.2905L37.9412 50.5588ZM42.7941 53.0294L42.658 53.2968L42.8522 53.3956L43.0062 53.2415L42.7941 53.0294ZM47.0294 48.7941L47.2415 49.0063L47.3956 48.8522L47.2968 48.658L47.0294 48.7941ZM44.5588 43.9412L44.2905 43.807L44.2228 43.9424L44.2915 44.0773L44.5588 43.9412ZM45.8824 40.6765L45.789 40.3914L45.6413 40.4397L45.5956 40.5882L45.8824 40.6765ZM51 39L51.0934 39.2851L51.3 39.2174V39H51ZM51 36H51.3V35.7H51V36ZM49.0588 36V35.7H48.7588V36H49.0588ZM49.0588 37.4118L49.1537 37.6964L49.3588 37.628V37.4118H49.0588ZM44.2941 39L44.1992 38.7154L44.0569 38.7628L44.0095 38.9051L44.2941 39ZM44.1176 39.5294L43.833 39.4346L43.8301 39.4433L43.8278 39.4521L44.1176 39.5294ZM42.5294 43.3235L42.2739 43.1663L42.267 43.1776L42.2611 43.1894L42.5294 43.3235ZM42.2647 43.8529L41.9964 43.7188L41.9286 43.8543L41.9974 43.9892L42.2647 43.8529ZM44.5588 48.353L44.771 48.5651L44.9251 48.4109L44.8261 48.2167L44.5588 48.353ZM42.4412 50.4706L42.3049 50.7379L42.4992 50.8369L42.6533 50.6827L42.4412 50.4706ZM37.9412 48.1765L38.0774 47.9092L37.9425 47.8404L37.807 47.9081L37.9412 48.1765ZM37.4118 48.4412L37.2776 48.1729L37.2701 48.1766L37.2629 48.1807L37.4118 48.4412ZM33.6177 50.0294L33.5404 49.7395L33.5315 49.7419L33.5228 49.7448L33.6177 50.0294ZM33.0882 50.2059L32.9934 49.9213L32.8511 49.9687L32.8036 50.111L33.0882 50.2059ZM31.5 54.9706V55.2706H31.7162L31.7846 55.0655L31.5 54.9706ZM28.5 54.9706L28.2154 55.0655L28.2838 55.2706H28.5V54.9706ZM26.9118 50.2059L27.1964 50.111L27.1489 49.9687L27.0066 49.9213L26.9118 50.2059ZM26.3823 50.0294L26.4772 49.7448L26.4685 49.7419L26.4596 49.7395L26.3823 50.0294ZM22.5882 48.4412L22.7455 48.1857L22.7342 48.1788L22.7224 48.1729L22.5882 48.4412ZM22.0588 48.1765L22.193 47.9081L22.0575 47.8404L21.9226 47.9092L22.0588 48.1765ZM17.5588 50.4706L17.3467 50.6827L17.5008 50.8369L17.6951 50.7379L17.5588 50.4706ZM15.4412 48.353L15.1739 48.2167L15.0749 48.4109L15.229 48.5651L15.4412 48.353ZM17.7353 43.8529L18.0026 43.9892L18.0714 43.8543L18.0036 43.7188L17.7353 43.8529ZM17.4706 43.3235L17.7389 43.1894L17.733 43.1776L17.7261 43.1663L17.4706 43.3235ZM15.8824 39.5294L16.1722 39.4521L16.1699 39.4433L16.167 39.4346L15.8824 39.5294ZM15.7059 39L15.9905 38.9051L15.9431 38.7628L15.8008 38.7154L15.7059 39ZM10.9412 37.4118H10.6412V37.628L10.8463 37.6964L10.9412 37.4118ZM10.9412 36H11.2412V35.7H10.9412V36ZM9.3 39V36H8.7V39H9.3ZM14.211 40.3914L9.09339 38.7149L8.90661 39.2851L14.0243 40.9616L14.211 40.3914ZM15.7095 43.807C15.1773 42.7425 14.6653 41.7154 14.41 40.609L13.8253 40.7439C14.0994 41.9316 14.6463 43.0222 15.1729 44.0754L15.7095 43.807ZM13.2379 48.9302L15.7085 44.0773L15.1738 43.8051L12.7032 48.658L13.2379 48.9302ZM17.418 52.8173L13.1827 48.582L12.7585 49.0063L16.9938 53.2415L17.418 52.8173ZM21.9227 50.2915L17.0698 52.7621L17.342 53.2968L22.1949 50.8262L21.9227 50.2915ZM25.4118 51.5956C24.2829 51.2483 23.2394 50.8137 22.193 50.2905L21.9247 50.8272C22.9959 51.3628 24.0701 51.8106 25.2353 52.1691L25.4118 51.5956ZM27.2851 56.9066L25.6086 51.789L25.0384 51.9758L26.7149 57.0934L27.2851 56.9066ZM33 56.7H27V57.3H33V56.7ZM34.3914 51.789L32.7149 56.9066L33.2851 57.0934L34.9616 51.9758L34.3914 51.789ZM37.807 50.2905C36.7425 50.8228 35.7154 51.3347 34.609 51.59L34.7439 52.1747C35.9316 51.9006 37.0221 51.3538 38.0753 50.8272L37.807 50.2905ZM37.807 50.2905L37.807 50.2905L38.0753 50.8272L38.0753 50.8272L37.807 50.2905ZM42.9302 52.7621L38.0773 50.2915L37.8051 50.8262L42.658 53.2968L42.9302 52.7621ZM46.8173 48.582L42.582 52.8173L43.0062 53.2415L47.2415 49.0063L46.8173 48.582ZM44.2915 44.0773L46.7621 48.9302L47.2968 48.658L44.8262 43.8051L44.2915 44.0773ZM45.5956 40.5882C45.2483 41.7171 44.8137 42.7606 44.2905 43.807L44.8272 44.0754C45.3628 43.0042 45.8106 41.9299 46.1691 40.7647L45.5956 40.5882ZM50.9066 38.7149L45.789 40.3914L45.9757 40.9616L51.0934 39.2851L50.9066 38.7149ZM50.7 36V39H51.3V36H50.7ZM51 35.7H49.0588V36.3H51V35.7ZM49.3588 37.4118V36H48.7588V37.4118H49.3588ZM44.389 39.2846L49.1537 37.6964L48.964 37.1272L44.1992 38.7154L44.389 39.2846ZM44.4023 39.6243L44.5787 39.0949L44.0095 38.9051L43.833 39.4346L44.4023 39.6243ZM42.7849 43.4808C43.5089 42.3043 44.0486 40.9528 44.4075 39.6067L43.8278 39.4521C43.4808 40.7531 42.9617 42.0486 42.2739 43.1663L42.7849 43.4808ZM42.533 43.9871L42.7977 43.4577L42.2611 43.1894L41.9964 43.7188L42.533 43.9871ZM44.8261 48.2167L42.532 43.7167L41.9974 43.9892L44.2915 48.4892L44.8261 48.2167ZM42.6533 50.6827L44.771 48.5651L44.3467 48.1408L42.229 50.2585L42.6533 50.6827ZM37.8049 48.4437L42.3049 50.7379L42.5774 50.2033L38.0774 47.9092L37.8049 48.4437ZM37.5459 48.7095L38.0753 48.4448L37.807 47.9081L37.2776 48.1729L37.5459 48.7095ZM33.695 50.3193C35.0468 49.9588 36.306 49.4186 37.5606 48.7017L37.2629 48.1807C36.047 48.8755 34.8356 49.3941 33.5404 49.7395L33.695 50.3193ZM33.1831 50.4905L33.7125 50.314L33.5228 49.7448L32.9934 49.9213L33.1831 50.4905ZM31.7846 55.0655L33.3728 50.3008L32.8036 50.111L31.2154 54.8757L31.7846 55.0655ZM28.5 55.2706H31.5V54.6706H28.5V55.2706ZM26.6272 50.3008L28.2154 55.0655L28.7846 54.8757L27.1964 50.111L26.6272 50.3008ZM26.2875 50.314L26.8169 50.4905L27.0066 49.9213L26.4772 49.7448L26.2875 50.314ZM22.431 48.6967C23.6074 49.4206 24.959 49.9603 26.305 50.3193L26.4596 49.7395C25.1586 49.3926 23.8632 48.8735 22.7455 48.1857L22.431 48.6967ZM21.9247 48.4448L22.4541 48.7095L22.7224 48.1729L22.193 47.9081L21.9247 48.4448ZM17.6951 50.7379L22.1951 48.4437L21.9226 47.9092L17.4226 50.2033L17.6951 50.7379ZM15.229 48.5651L17.3467 50.6827L17.771 50.2585L15.6533 48.1408L15.229 48.5651ZM17.468 43.7167L15.1739 48.2167L15.7085 48.4892L18.0026 43.9892L17.468 43.7167ZM17.2023 43.4577L17.467 43.9871L18.0036 43.7188L17.7389 43.1894L17.2023 43.4577ZM15.5925 39.6067C15.9514 40.9528 16.4911 42.3043 17.2151 43.4808L17.7261 43.1663C17.0383 42.0486 16.5192 40.7531 16.1722 39.4521L15.5925 39.6067ZM15.4213 39.0949L15.5977 39.6243L16.167 39.4346L15.9905 38.9051L15.4213 39.0949ZM10.8463 37.6964L15.611 39.2846L15.8008 38.7154L11.036 37.1272L10.8463 37.6964ZM10.6412 36V37.4118H11.2412V36H10.6412ZM10.9412 35.7H9V36.3H10.9412V35.7Z" fill="#004098"/>
<path d="M52 30.5C38 30.5 42.1503 30.5 30 30.5C17.8497 30.5 18.5 30.5 8 30.5C8 18.3497 17.8497 7.5 30 7.5C42.1503 7.5 52 18.3497 52 30.5Z" fill="#F6F8FA"/>
<path d="M10.104 24.6H8.69214C10.1026 13.923 19.1303 5 30.0009 5C40.8715 5 49.8991 13.923 51.3096 24.6H49.8977C48.4987 14.6427 40.0373 6.4 30.0009 6.4C19.9645 6.4 11.503 14.6427 10.104 24.6Z" fill="black" stroke="black"/>
<rect x="5.8" y="27.3" width="48.4" height="5.4" rx="2.2" fill="#F6F8FA" stroke="black" stroke-width="2.4"/>
<path d="M33.8827 4.5C34.4787 4.5 34.9424 5.01807 34.8766 5.61043L33.4321 18.6104C33.3759 19.1169 32.9478 19.5 32.4382 19.5L27.5617 19.5C27.0521 19.5 26.6241 19.1169 26.5678 18.6104L25.1233 5.61043C25.0575 5.01806 25.5212 4.5 26.1172 4.5L33.8827 4.5Z" fill="#F6F8FA"/>
<path fill-rule="evenodd" clip-rule="evenodd" d="M35.6514 22.5L36.9796 6.66558C37.1947 4.44343 35.6795 2.5 33.7318 2.5H26.2682C24.3206 2.5 22.8053 4.44343 23.0204 6.66558L24.3486 22.5H26.6658L25.313 6.37316C25.2497 5.71959 25.6954 5.14799 26.2682 5.14799L33.7318 5.14799C34.3046 5.14799 34.7503 5.71959 34.687 6.37316L33.3342 22.5H35.6514Z" fill="black"/>
</svg>
