<svg width="16" height="16" viewBox="0 0 16 16" fill="none" xmlns="http://www.w3.org/2000/svg">
<g id="Group 813">
<mask id="mask0_1027_10105" style="mask-type:alpha" maskUnits="userSpaceOnUse" x="0" y="0" width="16" height="16">
<rect id="Rectangle 501" x="0.537109" y="0.536133" width="14.9273" height="14.9273" fill="#D9D9D9"/>
</mask>
<g mask="url(#mask0_1027_10105)">
<g id="Union">
<mask id="path-2-inside-1_1027_10105" fill="white">
<path fill-rule="evenodd" clip-rule="evenodd" d="M10.5656 7.70166H10.9868C12.8005 7.70166 14.2708 9.17196 14.2708 10.9857C14.2708 12.7994 12.8005 14.2697 10.9868 14.2697H4.41877C2.60507 14.2697 1.13477 12.7994 1.13477 10.9857C1.13477 9.23082 2.51119 7.79745 4.24333 7.70627C4.63156 6.32537 5.9001 5.31299 7.4051 5.31299C8.90842 5.31299 10.1758 6.32312 10.5656 7.70166Z"/>
</mask>
<path d="M10.5656 7.70166L9.76118 7.92909L9.93322 8.53759H10.5656V7.70166ZM4.24333 7.70627L4.28727 8.54104L4.88583 8.50953L5.04806 7.93251L4.24333 7.70627ZM10.5656 8.53759H10.9868V6.86573H10.5656V8.53759ZM10.9868 8.53759C12.3388 8.53759 13.4349 9.63363 13.4349 10.9857H15.1067C15.1067 8.71029 13.2622 6.86573 10.9868 6.86573V8.53759ZM13.4349 10.9857C13.4349 12.3377 12.3388 13.4337 10.9868 13.4337V15.1056C13.2622 15.1056 15.1067 13.261 15.1067 10.9857H13.4349ZM10.9868 13.4337H4.41877V15.1056H10.9868V13.4337ZM4.41877 13.4337C3.06674 13.4337 1.97069 12.3377 1.97069 10.9857H0.298837C0.298837 13.261 2.1434 15.1056 4.41877 15.1056V13.4337ZM1.97069 10.9857C1.97069 9.67777 2.99675 8.60897 4.28727 8.54104L4.19938 6.87149C2.02562 6.98592 0.298837 8.78386 0.298837 10.9857H1.97069ZM5.04806 7.93251C5.33759 6.90269 6.2844 6.14892 7.4051 6.14892V4.47706C5.51581 4.47706 3.92554 5.74804 3.4386 7.48002L5.04806 7.93251ZM7.4051 6.14892C8.52455 6.14892 9.47051 6.90101 9.76118 7.92909L11.37 7.47423C10.8811 5.74522 9.29229 4.47706 7.4051 4.47706V6.14892Z" fill="black" mask="url(#path-2-inside-1_1027_10105)"/>
</g>
<g id="Group 814">
<mask id="mask1_1027_10105" style="mask-type:alpha" maskUnits="userSpaceOnUse" x="3" y="1" width="13" height="12">
<rect id="Rectangle 501_2" x="3.52344" y="1.1333" width="11.851" height="11.851" fill="#D9D9D9"/>
</mask>
<g mask="url(#mask1_1027_10105)">
<g id="Group 810">
<path id="Subtract" fill-rule="evenodd" clip-rule="evenodd" d="M11.9387 7.84135C12.015 7.59389 12.056 7.331 12.056 7.05852C12.056 5.59241 10.8675 4.40389 9.40141 4.40389C8.60393 4.40389 7.88858 4.75554 7.40197 5.31225C7.09128 5.31243 6.79069 5.35576 6.50586 5.43657C7.07413 4.42426 8.15789 3.74023 9.40141 3.74023C11.2341 3.74023 12.7197 5.22588 12.7197 7.05852C12.7197 7.4218 12.6613 7.77145 12.5534 8.09859C12.3595 7.99304 12.1538 7.90646 11.9387 7.84135Z" fill="black"/>
<g id="Group 813_2">
<line id="Line 103" y1="-0.331829" x2="1.80587" y2="-0.331829" transform="matrix(-1 8.74228e-08 8.74228e-08 1 15.0488 7.4375)" stroke="black" stroke-width="0.663657"/>
</g>
<g id="Group 814_2">
<g id="Group 816">
<line id="Line 102" x1="13.343" y1="3.10035" x2="12.0502" y2="4.36123" stroke="black" stroke-width="0.663657"/>
<line id="Line 104" x1="9.58964" y1="1.37061" x2="9.58964" y2="3.17648" stroke="black" stroke-width="0.663657"/>
<line id="Line 102_2" y1="-0.331829" x2="1.80587" y2="-0.331829" transform="matrix(0.715891 0.698212 0.698212 -0.715891 5.69531 2.86279)" stroke="black" stroke-width="0.663657"/>
</g>
</g>
</g>
</g>
</g>
</g>
</g>
</svg>
