<svg width="36" height="36" viewBox="0 0 36 36" fill="none" xmlns="http://www.w3.org/2000/svg">
<path d="M17.5393 5.41014C17.7884 5.14371 18.2109 5.14371 18.4599 5.41014L21.0004 8.12836C21.4794 8.64091 22.1566 8.92141 22.8578 8.89772L26.5762 8.77205C26.9407 8.75973 27.2395 9.0585 27.2272 9.42297L27.1015 13.1414C27.0778 13.8426 27.3583 14.5198 27.8709 14.9988L30.5891 17.5393C30.8555 17.7884 30.8555 18.2109 30.5891 18.4599L27.8709 21.0004C27.3583 21.4794 27.0778 22.1566 27.1015 22.8578L27.2272 26.5762C27.2395 26.9407 26.9407 27.2395 26.5763 27.2272L22.8578 27.1015C22.1566 27.0778 21.4794 27.3583 21.0004 27.8709L18.4599 30.5891C18.2109 30.8555 17.7884 30.8555 17.5393 30.5891L14.9988 27.8709C14.5198 27.3583 13.8426 27.0778 13.1414 27.1015L9.42297 27.2272C9.0585 27.2395 8.75973 26.9407 8.77205 26.5763L8.89772 22.8578C8.92141 22.1566 8.64091 21.4794 8.12835 21.0004L5.41014 18.4599C5.14371 18.2109 5.14371 17.7884 5.41014 17.5393L8.12836 14.9988C8.64091 14.5198 8.92141 13.8426 8.89772 13.1414L8.77205 9.42297C8.75973 9.0585 9.0585 8.75973 9.42297 8.77205L13.1414 8.89772C13.8426 8.92141 14.5198 8.64091 14.9988 8.12836L17.5393 5.41014Z" stroke="#131B2C" stroke-width="1.8"/>
<path d="M17.5393 5.41014C17.7884 5.14371 18.2109 5.14371 18.4599 5.41014L21.0004 8.12836C21.4794 8.64091 22.1566 8.92141 22.8578 8.89772L26.5762 8.77205C26.9407 8.75973 27.2395 9.0585 27.2272 9.42297L27.1015 13.1414C27.0778 13.8426 27.3583 14.5198 27.8709 14.9988L30.5891 17.5393C30.8555 17.7884 30.8555 18.2109 30.5891 18.4599L27.8709 21.0004C27.3583 21.4794 27.0778 22.1566 27.1015 22.8578L27.2272 26.5762C27.2395 26.9407 26.9407 27.2395 26.5763 27.2272L22.8578 27.1015C22.1566 27.0778 21.4794 27.3583 21.0004 27.8709L18.4599 30.5891C18.2109 30.8555 17.7884 30.8555 17.5393 30.5891L14.9988 27.8709C14.5198 27.3583 13.8426 27.0778 13.1414 27.1015L9.42297 27.2272C9.0585 27.2395 8.75973 26.9407 8.77205 26.5763L8.89772 22.8578C8.92141 22.1566 8.64091 21.4794 8.12835 21.0004L5.41014 18.4599C5.14371 18.2109 5.14371 17.7884 5.41014 17.5393L8.12836 14.9988C8.64091 14.5198 8.92141 13.8426 8.89772 13.1414L8.77205 9.42297C8.75973 9.0585 9.0585 8.75973 9.42297 8.77205L13.1414 8.89772C13.8426 8.92141 14.5198 8.64091 14.9988 8.12836L17.5393 5.41014Z" stroke="black" stroke-opacity="0.2" stroke-width="1.8"/>
<path d="M17.5393 5.41014C17.7884 5.14371 18.2109 5.14371 18.4599 5.41014L21.0004 8.12836C21.4794 8.64091 22.1566 8.92141 22.8578 8.89772L26.5762 8.77205C26.9407 8.75973 27.2395 9.0585 27.2272 9.42297L27.1015 13.1414C27.0778 13.8426 27.3583 14.5198 27.8709 14.9988L30.5891 17.5393C30.8555 17.7884 30.8555 18.2109 30.5891 18.4599L27.8709 21.0004C27.3583 21.4794 27.0778 22.1566 27.1015 22.8578L27.2272 26.5762C27.2395 26.9407 26.9407 27.2395 26.5763 27.2272L22.8578 27.1015C22.1566 27.0778 21.4794 27.3583 21.0004 27.8709L18.4599 30.5891C18.2109 30.8555 17.7884 30.8555 17.5393 30.5891L14.9988 27.8709C14.5198 27.3583 13.8426 27.0778 13.1414 27.1015L9.42297 27.2272C9.0585 27.2395 8.75973 26.9407 8.77205 26.5763L8.89772 22.8578C8.92141 22.1566 8.64091 21.4794 8.12835 21.0004L5.41014 18.4599C5.14371 18.2109 5.14371 17.7884 5.41014 17.5393L8.12836 14.9988C8.64091 14.5198 8.92141 13.8426 8.89772 13.1414L8.77205 9.42297C8.75973 9.0585 9.0585 8.75973 9.42297 8.77205L13.1414 8.89772C13.8426 8.92141 14.5198 8.64091 14.9988 8.12836L17.5393 5.41014Z" stroke="black" stroke-opacity="0.2" stroke-width="1.8"/>
<path d="M17.5393 5.41014C17.7884 5.14371 18.2109 5.14371 18.4599 5.41014L21.0004 8.12836C21.4794 8.64091 22.1566 8.92141 22.8578 8.89772L26.5762 8.77205C26.9407 8.75973 27.2395 9.0585 27.2272 9.42297L27.1015 13.1414C27.0778 13.8426 27.3583 14.5198 27.8709 14.9988L30.5891 17.5393C30.8555 17.7884 30.8555 18.2109 30.5891 18.4599L27.8709 21.0004C27.3583 21.4794 27.0778 22.1566 27.1015 22.8578L27.2272 26.5762C27.2395 26.9407 26.9407 27.2395 26.5763 27.2272L22.8578 27.1015C22.1566 27.0778 21.4794 27.3583 21.0004 27.8709L18.4599 30.5891C18.2109 30.8555 17.7884 30.8555 17.5393 30.5891L14.9988 27.8709C14.5198 27.3583 13.8426 27.0778 13.1414 27.1015L9.42297 27.2272C9.0585 27.2395 8.75973 26.9407 8.77205 26.5763L8.89772 22.8578C8.92141 22.1566 8.64091 21.4794 8.12835 21.0004L5.41014 18.4599C5.14371 18.2109 5.14371 17.7884 5.41014 17.5393L8.12836 14.9988C8.64091 14.5198 8.92141 13.8426 8.89772 13.1414L8.77205 9.42297C8.75973 9.0585 9.0585 8.75973 9.42297 8.77205L13.1414 8.89772C13.8426 8.92141 14.5198 8.64091 14.9988 8.12836L17.5393 5.41014Z" stroke="black" stroke-opacity="0.2" stroke-width="1.8"/>
<path d="M17.5393 5.41014C17.7884 5.14371 18.2109 5.14371 18.4599 5.41014L21.0004 8.12836C21.4794 8.64091 22.1566 8.92141 22.8578 8.89772L26.5762 8.77205C26.9407 8.75973 27.2395 9.0585 27.2272 9.42297L27.1015 13.1414C27.0778 13.8426 27.3583 14.5198 27.8709 14.9988L30.5891 17.5393C30.8555 17.7884 30.8555 18.2109 30.5891 18.4599L27.8709 21.0004C27.3583 21.4794 27.0778 22.1566 27.1015 22.8578L27.2272 26.5762C27.2395 26.9407 26.9407 27.2395 26.5763 27.2272L22.8578 27.1015C22.1566 27.0778 21.4794 27.3583 21.0004 27.8709L18.4599 30.5891C18.2109 30.8555 17.7884 30.8555 17.5393 30.5891L14.9988 27.8709C14.5198 27.3583 13.8426 27.0778 13.1414 27.1015L9.42297 27.2272C9.0585 27.2395 8.75973 26.9407 8.77205 26.5763L8.89772 22.8578C8.92141 22.1566 8.64091 21.4794 8.12835 21.0004L5.41014 18.4599C5.14371 18.2109 5.14371 17.7884 5.41014 17.5393L8.12836 14.9988C8.64091 14.5198 8.92141 13.8426 8.89772 13.1414L8.77205 9.42297C8.75973 9.0585 9.0585 8.75973 9.42297 8.77205L13.1414 8.89772C13.8426 8.92141 14.5198 8.64091 14.9988 8.12836L17.5393 5.41014Z" stroke="black" stroke-opacity="0.2" stroke-width="1.8"/>
<path d="M17.5393 5.41014C17.7884 5.14371 18.2109 5.14371 18.4599 5.41014L21.0004 8.12836C21.4794 8.64091 22.1566 8.92141 22.8578 8.89772L26.5762 8.77205C26.9407 8.75973 27.2395 9.0585 27.2272 9.42297L27.1015 13.1414C27.0778 13.8426 27.3583 14.5198 27.8709 14.9988L30.5891 17.5393C30.8555 17.7884 30.8555 18.2109 30.5891 18.4599L27.8709 21.0004C27.3583 21.4794 27.0778 22.1566 27.1015 22.8578L27.2272 26.5762C27.2395 26.9407 26.9407 27.2395 26.5763 27.2272L22.8578 27.1015C22.1566 27.0778 21.4794 27.3583 21.0004 27.8709L18.4599 30.5891C18.2109 30.8555 17.7884 30.8555 17.5393 30.5891L14.9988 27.8709C14.5198 27.3583 13.8426 27.0778 13.1414 27.1015L9.42297 27.2272C9.0585 27.2395 8.75973 26.9407 8.77205 26.5763L8.89772 22.8578C8.92141 22.1566 8.64091 21.4794 8.12835 21.0004L5.41014 18.4599C5.14371 18.2109 5.14371 17.7884 5.41014 17.5393L8.12836 14.9988C8.64091 14.5198 8.92141 13.8426 8.89772 13.1414L8.77205 9.42297C8.75973 9.0585 9.0585 8.75973 9.42297 8.77205L13.1414 8.89772C13.8426 8.92141 14.5198 8.64091 14.9988 8.12836L17.5393 5.41014Z" stroke="black" stroke-opacity="0.2" stroke-width="1.8"/>
<path d="M17.3152 13.3575C17.5308 12.6941 18.4692 12.6941 18.6848 13.3575L19.3538 15.4166C19.4502 15.7133 19.7267 15.9141 20.0386 15.9141H22.2037C22.9012 15.9141 23.1912 16.8067 22.6269 17.2166L20.8753 18.4893C20.6229 18.6726 20.5173 18.9976 20.6137 19.2942L21.2828 21.3534C21.4983 22.0167 20.7391 22.5683 20.1748 22.1584L18.4232 20.8857C18.1709 20.7024 17.8291 20.7024 17.5768 20.8857L15.8252 22.1584C15.2609 22.5683 14.5017 22.0167 14.7172 21.3534L15.3863 19.2942C15.4827 18.9976 15.3771 18.6726 15.1247 18.4893L13.3731 17.2166C12.8088 16.8067 13.0988 15.9141 13.7963 15.9141H15.9614C16.2733 15.9141 16.5498 15.7133 16.6462 15.4166L17.3152 13.3575Z" stroke="#004098" stroke-width="1.8"/>
</svg>
