<svg width="60" height="60" viewBox="0 0 60 60" fill="none" xmlns="http://www.w3.org/2000/svg">
<mask id="path-1-inside-1_687_1069" fill="white">
<rect x="23.8887" y="38.8889" width="10" height="11.1111" rx="2"/>
</mask>
<rect x="23.8887" y="38.8889" width="10" height="11.1111" rx="2" stroke="#131B2C" stroke-width="4.8" mask="url(#path-1-inside-1_687_1069)"/>
<rect x="21.667" y="18.8887" width="14.4444" height="2.66667" rx="1.33333" fill="#131B2C"/>
<path d="M41.7557 33.1111C41.7557 32.6693 42.1138 32.3111 42.5557 32.3111H51.889C52.3308 32.3111 52.689 32.6693 52.689 33.1111V48C52.689 48.4418 52.3308 48.8 51.889 48.8H41.7557V33.1111Z" stroke="#131B2C" stroke-width="2.4"/>
<rect x="45" y="35.5553" width="4.44444" height="2.22222" rx="1.11111" fill="#131B2C"/>
<rect x="45" y="38.8887" width="4.44444" height="2.22222" rx="1.11111" fill="#131B2C"/>
<rect x="21.667" y="24.4443" width="14.4444" height="2.66667" rx="1.33333" fill="#131B2C"/>
<rect x="21.667" y="30" width="14.4444" height="2.66667" rx="1.33333" fill="#131B2C"/>
<path d="M47.2424 22.7778C47.4587 22.6419 47.6417 22.459 47.7776 22.2427C47.9134 22.459 48.0964 22.6419 48.3127 22.7778C48.0964 22.9137 47.9134 23.0967 47.7776 23.3129C47.6417 23.0967 47.4587 22.9137 47.2424 22.7778Z" fill="#004098" stroke="#004098" stroke-width="2.4"/>
<path d="M7.77778 28.727L7.20719 28.5159L7.77778 28.727ZM7.15428 28.4963L7.17847 28.5052L7.15428 28.4963ZM8.49556 29.4448L8.70669 28.8742L8.49556 29.4448Z" fill="#004098" stroke="#004098" stroke-width="2.4"/>
<path d="M12.1481 35.5291L13.3333 32.326L14.5186 35.5291C14.7009 36.0218 15.0894 36.4102 15.582 36.5925L18.7851 37.7778L15.582 38.963C15.0894 39.1453 14.7009 39.5338 14.5186 40.0265L13.3333 43.2296L12.1481 40.0265C11.9658 39.5338 11.5773 39.1453 11.0846 38.963L7.88154 37.7778L11.0846 36.5925C11.5773 36.4102 11.9658 36.0218 12.1481 35.5291Z" stroke="#004098" stroke-width="2"/>
<path fill-rule="evenodd" clip-rule="evenodd" d="M15 45.1937V48C15 49.1046 15.8954 50 17 50H40.7778C41.8823 50 42.7778 49.1046 42.7778 48V12C42.7778 10.8954 41.8823 10 40.7778 10H17C15.8954 10 15 10.8954 15 12V30.3624C15.3375 30.684 15.6152 31.0945 15.8 31.594L16.6541 33.902L17.4 34.1781V12.4H40.3778V47.6H17.4V41.378L16.6541 41.6541L15.8 43.9621C15.6152 44.4616 15.3375 44.8721 15 45.1937ZM15 39.4227L17.4 38.5347V38.5338L15 39.4219V39.4227Z" fill="#131B2C"/>
</svg>
