<svg width="36" height="36" viewBox="0 0 36 36" fill="none" xmlns="http://www.w3.org/2000/svg">
<rect x="4.94883" y="24.4666" width="24.75" height="5.05161" rx="1.8" stroke="#131B2C" stroke-width="1.8"/>
<rect x="4.94883" y="24.4666" width="24.75" height="5.05161" rx="1.8" stroke="black" stroke-opacity="0.2" stroke-width="1.8"/>
<rect x="4.94883" y="24.4666" width="24.75" height="5.05161" rx="1.8" stroke="black" stroke-opacity="0.2" stroke-width="1.8"/>
<rect x="4.94883" y="24.4666" width="24.75" height="5.05161" rx="1.8" stroke="black" stroke-opacity="0.2" stroke-width="1.8"/>
<rect x="4.94883" y="24.4666" width="24.75" height="5.05161" rx="1.8" stroke="black" stroke-opacity="0.2" stroke-width="1.8"/>
<rect x="4.94883" y="24.4666" width="24.75" height="5.05161" rx="1.8" stroke="black" stroke-opacity="0.2" stroke-width="1.8"/>
<rect x="4.94883" y="15.9" width="17.0419" height="5.05161" rx="1.8" stroke="#131B2C" stroke-width="1.8"/>
<rect x="4.94883" y="15.9" width="17.0419" height="5.05161" rx="1.8" stroke="black" stroke-opacity="0.2" stroke-width="1.8"/>
<rect x="4.94883" y="15.9" width="17.0419" height="5.05161" rx="1.8" stroke="black" stroke-opacity="0.2" stroke-width="1.8"/>
<rect x="4.94883" y="15.9" width="17.0419" height="5.05161" rx="1.8" stroke="black" stroke-opacity="0.2" stroke-width="1.8"/>
<rect x="4.94883" y="15.9" width="17.0419" height="5.05161" rx="1.8" stroke="black" stroke-opacity="0.2" stroke-width="1.8"/>
<rect x="4.94883" y="15.9" width="17.0419" height="5.05161" rx="1.8" stroke="black" stroke-opacity="0.2" stroke-width="1.8"/>
<rect x="4.94883" y="7.33561" width="11.0468" height="5.05161" rx="1.8" stroke="#131B2C" stroke-width="1.8"/>
<rect x="4.94883" y="7.33561" width="11.0468" height="5.05161" rx="1.8" stroke="black" stroke-opacity="0.2" stroke-width="1.8"/>
<rect x="4.94883" y="7.33561" width="11.0468" height="5.05161" rx="1.8" stroke="black" stroke-opacity="0.2" stroke-width="1.8"/>
<rect x="4.94883" y="7.33561" width="11.0468" height="5.05161" rx="1.8" stroke="black" stroke-opacity="0.2" stroke-width="1.8"/>
<rect x="4.94883" y="7.33561" width="11.0468" height="5.05161" rx="1.8" stroke="black" stroke-opacity="0.2" stroke-width="1.8"/>
<rect x="4.94883" y="7.33561" width="11.0468" height="5.05161" rx="1.8" stroke="black" stroke-opacity="0.2" stroke-width="1.8"/>
<path d="M25.4164 15.8574C25.4164 16.3545 25.8193 16.7574 26.3164 16.7574C26.8135 16.7574 27.2164 16.3545 27.2164 15.8574L25.4164 15.8574ZM26.9528 4.94361C26.6013 4.59213 26.0315 4.59213 25.68 4.94361L19.9524 10.6712C19.601 11.0226 19.601 11.5925 19.9524 11.944C20.3039 12.2954 20.8738 12.2954 21.2252 11.944L26.3164 6.85279L31.4076 11.944C31.759 12.2954 32.3289 12.2954 32.6804 11.944C33.0318 11.5925 33.0318 11.0226 32.6804 10.6712L26.9528 4.94361ZM27.2164 15.8574L27.2164 5.58L25.4164 5.58L25.4164 15.8574L27.2164 15.8574Z" fill="#004098"/>
</svg>
