<svg width="60" height="60" viewBox="0 0 60 60" fill="none" xmlns="http://www.w3.org/2000/svg">
<circle cx="29.9577" cy="11.8698" r="5.66984" stroke="#004098" stroke-width="2.4"/>
<path d="M20.7979 27.442C20.7979 24.2361 22.6298 17.8242 29.9576 17.8242C37.2855 17.8242 39.1174 24.2361 39.1174 27.442" stroke="#004098" stroke-width="2.4"/>
<circle cx="44.3581" cy="39.1276" r="5.66984" stroke="#004098" stroke-width="2.4"/>
<path d="M35.1982 54.6998C35.1982 51.4939 37.0302 45.082 44.358 45.082C51.6858 45.082 53.5178 51.4939 53.5178 54.6998" stroke="#004098" stroke-width="2.4"/>
<circle cx="15.5583" cy="39.1276" r="5.66984" stroke="#004098" stroke-width="2.4"/>
<path d="M6.39844 54.6998C6.39844 51.4939 8.23039 45.082 15.5582 45.082C22.886 45.082 24.718 51.4939 24.718 54.6998" stroke="#004098" stroke-width="2.4"/>
<path fill-rule="evenodd" clip-rule="evenodd" d="M29.1982 27V32C29.1982 32.0307 29.1996 32.061 29.2023 32.0909C29.0398 32.1253 28.8835 32.2007 28.7498 32.3181L24.6856 35.8893C24.2708 36.2538 24.23 36.8857 24.5945 37.3006C24.9591 37.7154 25.5909 37.7562 26.0058 37.3917L30.07 33.8206C30.0835 33.8086 30.0967 33.7965 30.1094 33.784C30.1221 33.7964 30.1352 33.8085 30.1487 33.8204L34.2128 37.3915C34.6277 37.7561 35.2596 37.7153 35.6241 37.3004C35.9887 36.8855 35.9479 36.2537 35.533 35.8891L31.4688 32.318C31.3831 32.2426 31.288 32.1846 31.188 32.1436C31.1948 32.0967 31.1982 32.0488 31.1982 32V27C31.1982 26.4477 30.7505 26 30.1982 26C29.646 26 29.1982 26.4477 29.1982 27Z" fill="black"/>
<circle cx="30.0996" cy="32.7002" r="2.5" fill="black"/>
</svg>
