<svg width="36" height="36" viewBox="0 0 36 36" fill="none" xmlns="http://www.w3.org/2000/svg">
<path d="M23.255 5.92578L22.7615 6.91283M19.8004 15.3027L16.3457 25.1732" stroke="#131B2C" stroke-width="1.8" stroke-linecap="round" stroke-linejoin="round"/>
<path d="M23.255 5.92578L22.7615 6.91283M19.8004 15.3027L16.3457 25.1732" stroke="black" stroke-opacity="0.2" stroke-width="1.8" stroke-linecap="round" stroke-linejoin="round"/>
<path d="M23.255 5.92578L22.7615 6.91283M19.8004 15.3027L16.3457 25.1732" stroke="black" stroke-opacity="0.2" stroke-width="1.8" stroke-linecap="round" stroke-linejoin="round"/>
<path d="M23.255 5.92578L22.7615 6.91283M19.8004 15.3027L16.3457 25.1732" stroke="black" stroke-opacity="0.2" stroke-width="1.8" stroke-linecap="round" stroke-linejoin="round"/>
<path d="M23.255 5.92578L22.7615 6.91283M19.8004 15.3027L16.3457 25.1732" stroke="black" stroke-opacity="0.2" stroke-width="1.8" stroke-linecap="round" stroke-linejoin="round"/>
<path d="M23.255 5.92578L22.7615 6.91283M19.8004 15.3027L16.3457 25.1732" stroke="black" stroke-opacity="0.2" stroke-width="1.8" stroke-linecap="round" stroke-linejoin="round"/>
<path d="M15.3592 13.6244C12.6218 10.9964 9.94137 10.6132 8.94336 10.7501C10.7968 8.69703 15.958 5.16581 21.775 7.46524L15.3592 13.6244Z" stroke="#004098" stroke-width="1.8" stroke-linecap="round" stroke-linejoin="round"/>
<path d="M23.6037 16.6885C27.3957 16.5471 29.6521 18.0438 30.3063 18.8098C30.2879 16.044 28.7829 9.97421 22.9099 7.82194L23.6037 16.6885Z" stroke="#004098" stroke-width="1.8" stroke-linecap="round" stroke-linejoin="round"/>
<path d="M15.3574 13.8202C16.6735 13.4912 20.0952 13.6228 23.2538 16.7814" stroke="#004098" stroke-width="1.8" stroke-linecap="round" stroke-linejoin="round"/>
<path d="M3.53613 29.6844C4.90647 28.0843 9.32419 24.9401 16.0324 25.1645C22.7405 25.389 27.256 29.1613 28.6752 31.0194" stroke="#131B2C" stroke-width="1.8" stroke-linecap="round" stroke-linejoin="round"/>
<path d="M3.53613 29.6844C4.90647 28.0843 9.32419 24.9401 16.0324 25.1645C22.7405 25.389 27.256 29.1613 28.6752 31.0194" stroke="black" stroke-opacity="0.2" stroke-width="1.8" stroke-linecap="round" stroke-linejoin="round"/>
<path d="M3.53613 29.6844C4.90647 28.0843 9.32419 24.9401 16.0324 25.1645C22.7405 25.389 27.256 29.1613 28.6752 31.0194" stroke="black" stroke-opacity="0.2" stroke-width="1.8" stroke-linecap="round" stroke-linejoin="round"/>
<path d="M3.53613 29.6844C4.90647 28.0843 9.32419 24.9401 16.0324 25.1645C22.7405 25.389 27.256 29.1613 28.6752 31.0194" stroke="black" stroke-opacity="0.2" stroke-width="1.8" stroke-linecap="round" stroke-linejoin="round"/>
<path d="M3.53613 29.6844C4.90647 28.0843 9.32419 24.9401 16.0324 25.1645C22.7405 25.389 27.256 29.1613 28.6752 31.0194" stroke="black" stroke-opacity="0.2" stroke-width="1.8" stroke-linecap="round" stroke-linejoin="round"/>
<path d="M3.53613 29.6844C4.90647 28.0843 9.32419 24.9401 16.0324 25.1645C22.7405 25.389 27.256 29.1613 28.6752 31.0194" stroke="black" stroke-opacity="0.2" stroke-width="1.8" stroke-linecap="round" stroke-linejoin="round"/>
</svg>
