<svg width="36" height="36" viewBox="0 0 36 36" fill="none" xmlns="http://www.w3.org/2000/svg">
<path d="M10.8016 5.99805H8.23932C6.9206 5.99805 5.85156 7.06708 5.85156 8.3858V29.5771C5.85156 30.8959 6.9206 31.9649 8.23932 31.9649H25.5505C26.8693 31.9649 27.9383 30.8958 27.9383 29.5771V22.5004" stroke="#131B2C" stroke-width="1.8" stroke-linecap="round"/>
<path d="M10.8016 5.99805H8.23932C6.9206 5.99805 5.85156 7.06708 5.85156 8.3858V29.5771C5.85156 30.8959 6.9206 31.9649 8.23932 31.9649H25.5505C26.8693 31.9649 27.9383 30.8958 27.9383 29.5771V22.5004" stroke="black" stroke-opacity="0.2" stroke-width="1.8" stroke-linecap="round"/>
<path d="M10.8016 5.99805H8.23932C6.9206 5.99805 5.85156 7.06708 5.85156 8.3858V29.5771C5.85156 30.8959 6.9206 31.9649 8.23932 31.9649H25.5505C26.8693 31.9649 27.9383 30.8958 27.9383 29.5771V22.5004" stroke="black" stroke-opacity="0.2" stroke-width="1.8" stroke-linecap="round"/>
<path d="M10.8016 5.99805H8.23932C6.9206 5.99805 5.85156 7.06708 5.85156 8.3858V29.5771C5.85156 30.8959 6.9206 31.9649 8.23932 31.9649H25.5505C26.8693 31.9649 27.9383 30.8958 27.9383 29.5771V22.5004" stroke="black" stroke-opacity="0.2" stroke-width="1.8" stroke-linecap="round"/>
<path d="M10.8016 5.99805H8.23932C6.9206 5.99805 5.85156 7.06708 5.85156 8.3858V29.5771C5.85156 30.8959 6.9206 31.9649 8.23932 31.9649H25.5505C26.8693 31.9649 27.9383 30.8958 27.9383 29.5771V22.5004" stroke="black" stroke-opacity="0.2" stroke-width="1.8" stroke-linecap="round"/>
<path d="M10.8016 5.99805H8.23932C6.9206 5.99805 5.85156 7.06708 5.85156 8.3858V29.5771C5.85156 30.8959 6.9206 31.9649 8.23932 31.9649H25.5505C26.8693 31.9649 27.9383 30.8958 27.9383 29.5771V22.5004" stroke="black" stroke-opacity="0.2" stroke-width="1.8" stroke-linecap="round"/>
<circle cx="21.6004" cy="12.1512" r="8.55" stroke="#004098" stroke-width="1.8"/>
<path d="M17.5508 12.1504L21.1508 14.8504L26.1008 9.90039" stroke="#004098" stroke-width="1.8" stroke-linecap="round" stroke-linejoin="round"/>
<path d="M10.3496 26.998H23.8496" stroke="#131B2C" stroke-width="1.8" stroke-linecap="round"/>
<path d="M10.3496 26.998H23.8496" stroke="black" stroke-opacity="0.2" stroke-width="1.8" stroke-linecap="round"/>
<path d="M10.3496 26.998H23.8496" stroke="black" stroke-opacity="0.2" stroke-width="1.8" stroke-linecap="round"/>
<path d="M10.3496 26.998H23.8496" stroke="black" stroke-opacity="0.2" stroke-width="1.8" stroke-linecap="round"/>
<path d="M10.3496 26.998H23.8496" stroke="black" stroke-opacity="0.2" stroke-width="1.8" stroke-linecap="round"/>
<path d="M10.3496 26.998H23.8496" stroke="black" stroke-opacity="0.2" stroke-width="1.8" stroke-linecap="round"/>
<path d="M10.3496 19.7988H12.1496" stroke="#131B2C" stroke-width="1.8" stroke-linecap="round"/>
<path d="M10.3496 19.7988H12.1496" stroke="black" stroke-opacity="0.2" stroke-width="1.8" stroke-linecap="round"/>
<path d="M10.3496 19.7988H12.1496" stroke="black" stroke-opacity="0.2" stroke-width="1.8" stroke-linecap="round"/>
<path d="M10.3496 19.7988H12.1496" stroke="black" stroke-opacity="0.2" stroke-width="1.8" stroke-linecap="round"/>
<path d="M10.3496 19.7988H12.1496" stroke="black" stroke-opacity="0.2" stroke-width="1.8" stroke-linecap="round"/>
<path d="M10.3496 19.7988H12.1496" stroke="black" stroke-opacity="0.2" stroke-width="1.8" stroke-linecap="round"/>
<path d="M10.3496 23.3984H15.7496" stroke="#131B2C" stroke-width="1.8" stroke-linecap="round"/>
<path d="M10.3496 23.3984H15.7496" stroke="black" stroke-opacity="0.2" stroke-width="1.8" stroke-linecap="round"/>
<path d="M10.3496 23.3984H15.7496" stroke="black" stroke-opacity="0.2" stroke-width="1.8" stroke-linecap="round"/>
<path d="M10.3496 23.3984H15.7496" stroke="black" stroke-opacity="0.2" stroke-width="1.8" stroke-linecap="round"/>
<path d="M10.3496 23.3984H15.7496" stroke="black" stroke-opacity="0.2" stroke-width="1.8" stroke-linecap="round"/>
<path d="M10.3496 23.3984H15.7496" stroke="black" stroke-opacity="0.2" stroke-width="1.8" stroke-linecap="round"/>
</svg>
