<svg width="36" height="36" viewBox="0 0 36 36" fill="none" xmlns="http://www.w3.org/2000/svg">
<mask id="path-1-inside-1_848_2140" fill="white">
<rect x="9.17969" y="12.3496" width="17.2338" height="12.3098" rx="1.46243"/>
</mask>
<rect x="9.17969" y="12.3496" width="17.2338" height="12.3098" rx="1.46243" stroke="#004098" stroke-width="3.6" mask="url(#path-1-inside-1_848_2140)"/>
<path d="M21.5518 13.9469V11.532C21.5518 11.1282 21.2244 10.8008 20.8206 10.8008H14.9422C14.5383 10.8008 14.2109 11.1282 14.2109 11.532V13.9469" stroke="#004098" stroke-width="1.8"/>
<path fill-rule="evenodd" clip-rule="evenodd" d="M9.41455 17.3634L17.5779 19.4042L17.6612 19.0713L17.7444 19.4042L25.9078 17.3634L25.4712 15.6171L17.6612 17.5696L9.85111 15.6171L9.41455 17.3634Z" fill="#004098"/>
<path d="M31.7636 33.0364C32.1151 33.3879 32.6849 33.3879 33.0364 33.0364C33.3879 32.6849 33.3879 32.1151 33.0364 31.7636L31.7636 33.0364ZM26.3636 27.6364L31.7636 33.0364L33.0364 31.7636L27.6364 26.3636L26.3636 27.6364Z" fill="#131B2C"/>
<path d="M31.7636 33.0364C32.1151 33.3879 32.6849 33.3879 33.0364 33.0364C33.3879 32.6849 33.3879 32.1151 33.0364 31.7636L31.7636 33.0364ZM26.3636 27.6364L31.7636 33.0364L33.0364 31.7636L27.6364 26.3636L26.3636 27.6364Z" fill="black" fill-opacity="0.2"/>
<path d="M31.7636 33.0364C32.1151 33.3879 32.6849 33.3879 33.0364 33.0364C33.3879 32.6849 33.3879 32.1151 33.0364 31.7636L31.7636 33.0364ZM26.3636 27.6364L31.7636 33.0364L33.0364 31.7636L27.6364 26.3636L26.3636 27.6364Z" fill="black" fill-opacity="0.2"/>
<path d="M31.7636 33.0364C32.1151 33.3879 32.6849 33.3879 33.0364 33.0364C33.3879 32.6849 33.3879 32.1151 33.0364 31.7636L31.7636 33.0364ZM26.3636 27.6364L31.7636 33.0364L33.0364 31.7636L27.6364 26.3636L26.3636 27.6364Z" fill="black" fill-opacity="0.2"/>
<path d="M31.7636 33.0364C32.1151 33.3879 32.6849 33.3879 33.0364 33.0364C33.3879 32.6849 33.3879 32.1151 33.0364 31.7636L31.7636 33.0364ZM26.3636 27.6364L31.7636 33.0364L33.0364 31.7636L27.6364 26.3636L26.3636 27.6364Z" fill="black" fill-opacity="0.2"/>
<path d="M31.7636 33.0364C32.1151 33.3879 32.6849 33.3879 33.0364 33.0364C33.3879 32.6849 33.3879 32.1151 33.0364 31.7636L31.7636 33.0364ZM26.3636 27.6364L31.7636 33.0364L33.0364 31.7636L27.6364 26.3636L26.3636 27.6364Z" fill="black" fill-opacity="0.2"/>
<circle cx="17.5496" cy="17.5496" r="13.05" stroke="#131B2C" stroke-width="1.8"/>
<circle cx="17.5496" cy="17.5496" r="13.05" stroke="black" stroke-opacity="0.2" stroke-width="1.8"/>
<circle cx="17.5496" cy="17.5496" r="13.05" stroke="black" stroke-opacity="0.2" stroke-width="1.8"/>
<circle cx="17.5496" cy="17.5496" r="13.05" stroke="black" stroke-opacity="0.2" stroke-width="1.8"/>
<circle cx="17.5496" cy="17.5496" r="13.05" stroke="black" stroke-opacity="0.2" stroke-width="1.8"/>
<circle cx="17.5496" cy="17.5496" r="13.05" stroke="black" stroke-opacity="0.2" stroke-width="1.8"/>
</svg>
