<svg width="60" height="60" viewBox="0 0 60 60" fill="none" xmlns="http://www.w3.org/2000/svg">
<rect x="3.2" y="11.3543" width="42.8308" height="29.9077" rx="2.8" stroke="black" stroke-width="2.4"/>
<path d="M32.1541 12.3077V10C32.1541 8.89543 31.2586 8 30.1541 8H19.0771C17.9726 8 17.0771 8.89543 17.0771 10V12.3077" stroke="black" stroke-width="2.4"/>
<path fill-rule="evenodd" clip-rule="evenodd" d="M24.2588 27.5403L24.3245 27.5567L24.3333 27.5216L45.6182 22.2004L45.0361 19.8721L24.2588 25.0664L3.4815 19.8721L2.89941 22.2004L24.1844 27.5216L24.1931 27.5567L24.2588 27.5403Z" fill="black"/>
<mask id="path-4-inside-1_687_1011" fill="white">
<rect x="19.2305" y="22" width="10.7692" height="7.53846" rx="2"/>
</mask>
<rect x="19.2305" y="22" width="10.7692" height="7.53846" rx="2" fill="white" stroke="black" stroke-width="4.8" mask="url(#path-4-inside-1_687_1011)"/>
<circle cx="44.5387" cy="37.9225" r="12.2615" fill="#F6F6F6" stroke="#004098" stroke-width="2.4"/>
<circle cx="44.5382" cy="31.4611" r="1.61538" fill="#004098"/>
<rect x="42.9229" y="35.2305" width="3.23077" height="10.7692" rx="1.61538" fill="#004098"/>
</svg>
