<svg width="60" height="60" viewBox="0 0 60 60" fill="none" xmlns="http://www.w3.org/2000/svg">
<line x1="12.2441" y1="11.3" x2="48.2441" y2="11.3" stroke="black" stroke-width="2.4"/>
<path d="M3.24414 34.5L12.2441 10.5L20.7441 34.5C20.9108 37.3333 19.4441 43.5 12.2441 43.5C5.04414 43.5 3.24414 37.3333 3.24414 34.5Z" stroke="#004098" stroke-width="2.4" stroke-linecap="round" stroke-linejoin="round"/>
<line x1="3.24414" y1="35.3" x2="20.2441" y2="35.3" stroke="#004098" stroke-width="2.4"/>
<path d="M39.2441 34.5L48.2441 10.5L56.7441 34.5C56.9108 37.3333 55.4441 43.5 48.2441 43.5C41.0441 43.5 39.2441 37.3333 39.2441 34.5Z" stroke="#004098" stroke-width="2.4" stroke-linecap="round" stroke-linejoin="round"/>
<line x1="39.2441" y1="35.3" x2="56.2441" y2="35.3" stroke="#004098" stroke-width="2.4"/>
<circle cx="30.2441" cy="11.5" r="2.8" fill="white" stroke="black" stroke-width="2.4"/>
<line x1="30.4441" y1="13.5" x2="30.4441" y2="51.5" stroke="black" stroke-width="2.4"/>
<path d="M20.2441 51.3L40.2441 51.3" stroke="black" stroke-width="2.4" stroke-linecap="round"/>
</svg>
