<svg width="36" height="36" viewBox="0 0 36 36" fill="none" xmlns="http://www.w3.org/2000/svg">
<path d="M11.4673 7.50964C11.6829 6.84629 12.6213 6.84629 12.8369 7.50964L13.5059 9.56879C13.6023 9.86544 13.8788 10.0663 14.1907 10.0663H16.3558C17.0533 10.0663 17.3433 10.9588 16.779 11.3688L15.0274 12.6414C14.775 12.8248 14.6694 13.1497 14.7658 13.4464L15.4349 15.5055C15.6504 16.1689 14.8912 16.7205 14.3269 16.3105L12.5753 15.0379C12.323 14.8546 11.9812 14.8546 11.7289 15.0379L9.97728 16.3105C9.413 16.7205 8.65378 16.1689 8.86931 15.5055L9.53837 13.4464C9.63476 13.1497 9.52916 12.8248 9.27681 12.6414L7.5252 11.3688C6.96092 10.9588 7.25092 10.0663 7.9484 10.0663H10.1135C10.4254 10.0663 10.7019 9.86544 10.7983 9.56879L11.4673 7.50964Z" stroke="#004098" stroke-width="1.8"/>
<path d="M11.6438 20.3097C11.9249 20.0285 12.3808 20.0285 12.662 20.3097L16.5938 24.2415C16.8749 24.5227 16.8749 24.9785 16.5938 25.2597L12.662 29.1915C12.3808 29.4727 11.9249 29.4727 11.6438 29.1915L7.712 25.2597C7.43082 24.9785 7.43082 24.5227 7.712 24.2415L11.6438 20.3097Z" stroke="#131B2C" stroke-width="1.8"/>
<path d="M11.6438 20.3097C11.9249 20.0285 12.3808 20.0285 12.662 20.3097L16.5938 24.2415C16.8749 24.5227 16.8749 24.9785 16.5938 25.2597L12.662 29.1915C12.3808 29.4727 11.9249 29.4727 11.6438 29.1915L7.712 25.2597C7.43082 24.9785 7.43082 24.5227 7.712 24.2415L11.6438 20.3097Z" stroke="black" stroke-opacity="0.2" stroke-width="1.8"/>
<path d="M11.6438 20.3097C11.9249 20.0285 12.3808 20.0285 12.662 20.3097L16.5938 24.2415C16.8749 24.5227 16.8749 24.9785 16.5938 25.2597L12.662 29.1915C12.3808 29.4727 11.9249 29.4727 11.6438 29.1915L7.712 25.2597C7.43082 24.9785 7.43082 24.5227 7.712 24.2415L11.6438 20.3097Z" stroke="black" stroke-opacity="0.2" stroke-width="1.8"/>
<path d="M11.6438 20.3097C11.9249 20.0285 12.3808 20.0285 12.662 20.3097L16.5938 24.2415C16.8749 24.5227 16.8749 24.9785 16.5938 25.2597L12.662 29.1915C12.3808 29.4727 11.9249 29.4727 11.6438 29.1915L7.712 25.2597C7.43082 24.9785 7.43082 24.5227 7.712 24.2415L11.6438 20.3097Z" stroke="black" stroke-opacity="0.2" stroke-width="1.8"/>
<path d="M11.6438 20.3097C11.9249 20.0285 12.3808 20.0285 12.662 20.3097L16.5938 24.2415C16.8749 24.5227 16.8749 24.9785 16.5938 25.2597L12.662 29.1915C12.3808 29.4727 11.9249 29.4727 11.6438 29.1915L7.712 25.2597C7.43082 24.9785 7.43082 24.5227 7.712 24.2415L11.6438 20.3097Z" stroke="black" stroke-opacity="0.2" stroke-width="1.8"/>
<path d="M11.6438 20.3097C11.9249 20.0285 12.3808 20.0285 12.662 20.3097L16.5938 24.2415C16.8749 24.5227 16.8749 24.9785 16.5938 25.2597L12.662 29.1915C12.3808 29.4727 11.9249 29.4727 11.6438 29.1915L7.712 25.2597C7.43082 24.9785 7.43082 24.5227 7.712 24.2415L11.6438 20.3097Z" stroke="black" stroke-opacity="0.2" stroke-width="1.8"/>
<path d="M25.2929 7.41079C25.5156 7.28217 25.7901 7.28217 26.0129 7.41079L29.5797 9.4701C29.8025 9.59871 29.9397 9.8364 29.9397 10.0936V14.2122C29.9397 14.4695 29.8025 14.7072 29.5797 14.8358L26.0129 16.8951C25.7901 17.0237 25.5156 17.0237 25.2929 16.8951L21.7261 14.8358C21.5033 14.7072 21.3661 14.4695 21.3661 14.2122V10.0936C21.3661 9.8364 21.5033 9.59871 21.7261 9.4701L25.2929 7.41079Z" stroke="#131B2C" stroke-width="1.8"/>
<path d="M25.2929 7.41079C25.5156 7.28217 25.7901 7.28217 26.0129 7.41079L29.5797 9.4701C29.8025 9.59871 29.9397 9.8364 29.9397 10.0936V14.2122C29.9397 14.4695 29.8025 14.7072 29.5797 14.8358L26.0129 16.8951C25.7901 17.0237 25.5156 17.0237 25.2929 16.8951L21.7261 14.8358C21.5033 14.7072 21.3661 14.4695 21.3661 14.2122V10.0936C21.3661 9.8364 21.5033 9.59871 21.7261 9.4701L25.2929 7.41079Z" stroke="black" stroke-opacity="0.2" stroke-width="1.8"/>
<path d="M25.2929 7.41079C25.5156 7.28217 25.7901 7.28217 26.0129 7.41079L29.5797 9.4701C29.8025 9.59871 29.9397 9.8364 29.9397 10.0936V14.2122C29.9397 14.4695 29.8025 14.7072 29.5797 14.8358L26.0129 16.8951C25.7901 17.0237 25.5156 17.0237 25.2929 16.8951L21.7261 14.8358C21.5033 14.7072 21.3661 14.4695 21.3661 14.2122V10.0936C21.3661 9.8364 21.5033 9.59871 21.7261 9.4701L25.2929 7.41079Z" stroke="black" stroke-opacity="0.2" stroke-width="1.8"/>
<path d="M25.2929 7.41079C25.5156 7.28217 25.7901 7.28217 26.0129 7.41079L29.5797 9.4701C29.8025 9.59871 29.9397 9.8364 29.9397 10.0936V14.2122C29.9397 14.4695 29.8025 14.7072 29.5797 14.8358L26.0129 16.8951C25.7901 17.0237 25.5156 17.0237 25.2929 16.8951L21.7261 14.8358C21.5033 14.7072 21.3661 14.4695 21.3661 14.2122V10.0936C21.3661 9.8364 21.5033 9.59871 21.7261 9.4701L25.2929 7.41079Z" stroke="black" stroke-opacity="0.2" stroke-width="1.8"/>
<path d="M25.2929 7.41079C25.5156 7.28217 25.7901 7.28217 26.0129 7.41079L29.5797 9.4701C29.8025 9.59871 29.9397 9.8364 29.9397 10.0936V14.2122C29.9397 14.4695 29.8025 14.7072 29.5797 14.8358L26.0129 16.8951C25.7901 17.0237 25.5156 17.0237 25.2929 16.8951L21.7261 14.8358C21.5033 14.7072 21.3661 14.4695 21.3661 14.2122V10.0936C21.3661 9.8364 21.5033 9.59871 21.7261 9.4701L25.2929 7.41079Z" stroke="black" stroke-opacity="0.2" stroke-width="1.8"/>
<path d="M25.2929 7.41079C25.5156 7.28217 25.7901 7.28217 26.0129 7.41079L29.5797 9.4701C29.8025 9.59871 29.9397 9.8364 29.9397 10.0936V14.2122C29.9397 14.4695 29.8025 14.7072 29.5797 14.8358L26.0129 16.8951C25.7901 17.0237 25.5156 17.0237 25.2929 16.8951L21.7261 14.8358C21.5033 14.7072 21.3661 14.4695 21.3661 14.2122V10.0936C21.3661 9.8364 21.5033 9.59871 21.7261 9.4701L25.2929 7.41079Z" stroke="black" stroke-opacity="0.2" stroke-width="1.8"/>
<circle cx="25.2029" cy="25.2029" r="4.5" stroke="#131B2C" stroke-width="1.8"/>
<circle cx="25.2029" cy="25.2029" r="4.5" stroke="black" stroke-opacity="0.2" stroke-width="1.8"/>
<circle cx="25.2029" cy="25.2029" r="4.5" stroke="black" stroke-opacity="0.2" stroke-width="1.8"/>
<circle cx="25.2029" cy="25.2029" r="4.5" stroke="black" stroke-opacity="0.2" stroke-width="1.8"/>
<circle cx="25.2029" cy="25.2029" r="4.5" stroke="black" stroke-opacity="0.2" stroke-width="1.8"/>
<circle cx="25.2029" cy="25.2029" r="4.5" stroke="black" stroke-opacity="0.2" stroke-width="1.8"/>
</svg>
