<svg width="36" height="36" viewBox="0 0 36 36" fill="none" xmlns="http://www.w3.org/2000/svg">
<path d="M5.84927 11.6995C5.84927 9.71113 7.46113 8.09927 9.44946 8.09927H26.5504C28.5387 8.09927 30.1506 9.71113 30.1506 11.6995V26.1002C30.1506 28.0886 28.5387 29.7004 26.5504 29.7004H9.44946C7.46113 29.7004 5.84927 28.0886 5.84927 26.1002V11.6995Z" stroke="#131B2C" stroke-width="1.8001"/>
<path d="M5.84927 11.6995C5.84927 9.71113 7.46113 8.09927 9.44946 8.09927H26.5504C28.5387 8.09927 30.1506 9.71113 30.1506 11.6995V26.1002C30.1506 28.0886 28.5387 29.7004 26.5504 29.7004H9.44946C7.46113 29.7004 5.84927 28.0886 5.84927 26.1002V11.6995Z" stroke="black" stroke-opacity="0.2" stroke-width="1.8001"/>
<path d="M5.84927 11.6995C5.84927 9.71113 7.46113 8.09927 9.44946 8.09927H26.5504C28.5387 8.09927 30.1506 9.71113 30.1506 11.6995V26.1002C30.1506 28.0886 28.5387 29.7004 26.5504 29.7004H9.44946C7.46113 29.7004 5.84927 28.0886 5.84927 26.1002V11.6995Z" stroke="black" stroke-opacity="0.2" stroke-width="1.8001"/>
<path d="M5.84927 11.6995C5.84927 9.71113 7.46113 8.09927 9.44946 8.09927H26.5504C28.5387 8.09927 30.1506 9.71113 30.1506 11.6995V26.1002C30.1506 28.0886 28.5387 29.7004 26.5504 29.7004H9.44946C7.46113 29.7004 5.84927 28.0886 5.84927 26.1002V11.6995Z" stroke="black" stroke-opacity="0.2" stroke-width="1.8001"/>
<path d="M5.84927 11.6995C5.84927 9.71113 7.46113 8.09927 9.44946 8.09927H26.5504C28.5387 8.09927 30.1506 9.71113 30.1506 11.6995V26.1002C30.1506 28.0886 28.5387 29.7004 26.5504 29.7004H9.44946C7.46113 29.7004 5.84927 28.0886 5.84927 26.1002V11.6995Z" stroke="black" stroke-opacity="0.2" stroke-width="1.8001"/>
<path d="M5.84927 11.6995C5.84927 9.71113 7.46113 8.09927 9.44946 8.09927H26.5504C28.5387 8.09927 30.1506 9.71113 30.1506 11.6995V26.1002C30.1506 28.0886 28.5387 29.7004 26.5504 29.7004H9.44946C7.46113 29.7004 5.84927 28.0886 5.84927 26.1002V11.6995Z" stroke="black" stroke-opacity="0.2" stroke-width="1.8001"/>
<path d="M15.3008 17.7754L18.2258 20.7004" stroke="#004098" stroke-width="1.8001" stroke-linecap="round" stroke-linejoin="round"/>
<path d="M21.1504 17.7754L18.2254 20.7004" stroke="#004098" stroke-width="1.8001" stroke-linecap="round" stroke-linejoin="round"/>
<path d="M20.7009 21.4453L15.6098 21.4453" stroke="#004098" stroke-width="1.8001" stroke-linecap="round" stroke-linejoin="round"/>
<path d="M18 24.3008L18 20.7002" stroke="#004098" stroke-width="1.8001" stroke-linecap="round" stroke-linejoin="round"/>
<path d="M13.9512 9.88867L13.9512 6.28813" stroke="#131B2C" stroke-width="1.8001" stroke-linecap="round" stroke-linejoin="round"/>
<path d="M13.9512 9.88867L13.9512 6.28813" stroke="black" stroke-opacity="0.2" stroke-width="1.8001" stroke-linecap="round" stroke-linejoin="round"/>
<path d="M13.9512 9.88867L13.9512 6.28813" stroke="black" stroke-opacity="0.2" stroke-width="1.8001" stroke-linecap="round" stroke-linejoin="round"/>
<path d="M13.9512 9.88867L13.9512 6.28813" stroke="black" stroke-opacity="0.2" stroke-width="1.8001" stroke-linecap="round" stroke-linejoin="round"/>
<path d="M13.9512 9.88867L13.9512 6.28813" stroke="black" stroke-opacity="0.2" stroke-width="1.8001" stroke-linecap="round" stroke-linejoin="round"/>
<path d="M13.9512 9.88867L13.9512 6.28813" stroke="black" stroke-opacity="0.2" stroke-width="1.8001" stroke-linecap="round" stroke-linejoin="round"/>
<path d="M22.0547 9.88281L22.0547 6.28227" stroke="#131B2C" stroke-width="1.8001" stroke-linecap="round" stroke-linejoin="round"/>
<path d="M22.0547 9.88281L22.0547 6.28227" stroke="black" stroke-opacity="0.2" stroke-width="1.8001" stroke-linecap="round" stroke-linejoin="round"/>
<path d="M22.0547 9.88281L22.0547 6.28227" stroke="black" stroke-opacity="0.2" stroke-width="1.8001" stroke-linecap="round" stroke-linejoin="round"/>
<path d="M22.0547 9.88281L22.0547 6.28227" stroke="black" stroke-opacity="0.2" stroke-width="1.8001" stroke-linecap="round" stroke-linejoin="round"/>
<path d="M22.0547 9.88281L22.0547 6.28227" stroke="black" stroke-opacity="0.2" stroke-width="1.8001" stroke-linecap="round" stroke-linejoin="round"/>
<path d="M22.0547 9.88281L22.0547 6.28227" stroke="black" stroke-opacity="0.2" stroke-width="1.8001" stroke-linecap="round" stroke-linejoin="round"/>
<line x1="5.39844" y1="13.5003" x2="29.6998" y2="13.5003" stroke="#131B2C" stroke-width="1.8001"/>
<line x1="5.39844" y1="13.5003" x2="29.6998" y2="13.5003" stroke="black" stroke-opacity="0.2" stroke-width="1.8001"/>
<line x1="5.39844" y1="13.5003" x2="29.6998" y2="13.5003" stroke="black" stroke-opacity="0.2" stroke-width="1.8001"/>
<line x1="5.39844" y1="13.5003" x2="29.6998" y2="13.5003" stroke="black" stroke-opacity="0.2" stroke-width="1.8001"/>
<line x1="5.39844" y1="13.5003" x2="29.6998" y2="13.5003" stroke="black" stroke-opacity="0.2" stroke-width="1.8001"/>
<line x1="5.39844" y1="13.5003" x2="29.6998" y2="13.5003" stroke="black" stroke-opacity="0.2" stroke-width="1.8001"/>
</svg>
