<svg width="36" height="36" viewBox="0 0 36 36" fill="none" xmlns="http://www.w3.org/2000/svg">
<path d="M33.3004 14.8496L33.3004 13.9496L31.5004 13.9496L31.5004 14.8496L33.3004 14.8496ZM31.5004 22.9496C31.5004 23.4467 31.9033 23.8496 32.4004 23.8496C32.8974 23.8496 33.3004 23.4467 33.3004 22.9496L31.5004 22.9496ZM31.5004 14.8496L31.5004 22.9496L33.3004 22.9496L33.3004 14.8496L31.5004 14.8496Z" fill="#004098"/>
<path d="M3.15039 14.6594L18.782 18.4488L32.8504 14.6594L18.782 8.54883L3.15039 14.6594Z" stroke="#004098" stroke-width="1.8" stroke-linecap="round" stroke-linejoin="round"/>
<path d="M18.4504 22.2425L7.65039 19.3496V25.1353L18.4504 27.4496L29.2504 25.1353V19.3496L18.4504 22.2425Z" stroke="black" stroke-width="1.8" stroke-linecap="round" stroke-linejoin="round"/>
</svg>
