<svg width="44" height="44" viewBox="0 0 44 44" fill="none" xmlns="http://www.w3.org/2000/svg">
<path d="M20.6685 21.4043C20.6685 20.9012 21.0763 20.4934 21.5793 20.4934H30.0444C30.5475 20.4934 30.9553 20.9012 30.9553 21.4043V37.0882C30.9553 37.5913 30.5475 37.9991 30.0444 37.9991H21.5794C21.0763 37.9991 20.6685 37.5913 20.6685 37.0882V21.4043Z" fill="#004098"/>
<path fill-rule="evenodd" clip-rule="evenodd" d="M6.59937 12.0122C6.0963 12.0122 5.68848 12.42 5.68848 12.9231V37.0891C5.68848 37.5922 6.0963 38 6.59937 38H21.02C21.523 38 21.9309 37.5922 21.9309 37.0891V12.9231C21.9309 12.42 21.523 12.0122 21.02 12.0122H6.59937ZM13.72 29.5176C12.175 29.5176 10.9227 30.77 10.9227 32.3149V37.9997H16.5173V32.3149C16.5173 30.77 15.2649 29.5176 13.72 29.5176Z" fill="#306FFF"/>
<g filter="url(#filter0_bi_214_2611)">
<rect x="13.6709" y="5.06082" width="25.5322" height="25.5322" rx="12.7661" fill="#739EFF" fill-opacity="0.5"/>
</g>
<g opacity="0.3">
<path d="M26.4704 8.05154V8.05154C31.9426 8.05154 36.3787 12.4877 36.3787 17.9599V18.193C36.3787 23.6653 31.9426 28.1014 26.4704 28.1014V28.1014C20.9981 28.1014 16.562 23.6653 16.562 18.193V18.0765" stroke="white" stroke-width="1.45743" stroke-linecap="round"/>
<path fill-rule="evenodd" clip-rule="evenodd" d="M27.0414 10.4172C27.326 10.7018 27.7874 10.7018 28.0719 10.4172C28.3565 10.1327 28.3565 9.67126 28.0719 9.38668L26.9504 8.2652L28.0719 7.14372C28.3565 6.85914 28.3565 6.39774 28.0719 6.11316C27.7874 5.82858 27.326 5.82858 27.0414 6.11316L25.4211 7.73339C25.4155 7.73871 25.4099 7.74413 25.4044 7.74966C25.2614 7.89257 25.1903 8.08008 25.1909 8.26739C25.1914 8.45324 25.2626 8.63894 25.4044 8.78074C25.4099 8.78627 25.4155 8.79169 25.4211 8.797L27.0414 10.4172Z" fill="white"/>
</g>
<path fill-rule="evenodd" clip-rule="evenodd" d="M27.1587 13.1203C27.1587 12.6173 26.7509 12.2094 26.2478 12.2094C25.7447 12.2094 25.3369 12.6173 25.3369 13.1203L25.3369 19.2402C25.3369 19.2641 25.3378 19.2877 25.3396 19.3111C25.3547 19.6434 25.5519 19.9553 25.876 20.1011L30.1576 22.028C30.6163 22.2344 31.1556 22.0299 31.3621 21.5712C31.5685 21.1124 31.364 20.5731 30.9052 20.3667L27.1587 18.6806L27.1587 13.1203Z" fill="white"/>
<defs>
<filter id="filter0_bi_214_2611" x="-4.54696" y="-13.157" width="61.9679" height="61.9679" filterUnits="userSpaceOnUse" color-interpolation-filters="sRGB">
<feFlood flood-opacity="0" result="BackgroundImageFix"/>
<feGaussianBlur in="BackgroundImageFix" stdDeviation="9.10893"/>
<feComposite in2="SourceAlpha" operator="in" result="effect1_backgroundBlur_214_2611"/>
<feBlend mode="normal" in="SourceGraphic" in2="effect1_backgroundBlur_214_2611" result="shape"/>
<feColorMatrix in="SourceAlpha" type="matrix" values="0 0 0 0 0 0 0 0 0 0 0 0 0 0 0 0 0 0 127 0" result="hardAlpha"/>
<feOffset dx="1.82179" dy="2.73268"/>
<feGaussianBlur stdDeviation="9.10893"/>
<feComposite in2="hardAlpha" operator="arithmetic" k2="-1" k3="1"/>
<feColorMatrix type="matrix" values="0 0 0 0 1 0 0 0 0 1 0 0 0 0 1 0 0 0 0.6 0"/>
<feBlend mode="normal" in2="shape" result="effect2_innerShadow_214_2611"/>
</filter>
</defs>
</svg>
