<svg width="44" height="44" viewBox="0 0 44 44" fill="none" xmlns="http://www.w3.org/2000/svg">
<path d="M7.4768 21.5333C7.4768 13.3478 13.7169 11.3385 16.837 11.3571C27.2558 11.3571 28.4259 23.4241 26.2529 25.426C24.5146 27.0275 24.2658 34.935 24.3586 37.4929H12.1569L11.8783 33.4892H9.20398C7.91138 33.4892 7.51394 32.4882 7.4768 31.9877L6.4182 26.4825L4.57959 25.426L7.4768 21.5333Z" fill="#306FFF"/>
<g filter="url(#filter0_bi_214_2651)">
<path d="M15.7315 15.3549C15.7314 13.5117 16.1878 11.6973 17.0598 10.0735C17.9319 8.44971 19.1925 7.06716 20.7291 6.04929C22.2657 5.03142 24.0304 4.40991 25.8657 4.24026C27.701 4.07061 29.5498 4.35809 31.2469 5.07705C32.9441 5.796 34.4367 6.92404 35.5917 8.36045C36.7466 9.79686 37.5279 11.4969 37.8657 13.3088C38.2035 15.1208 38.0873 16.9881 37.5276 18.7442C36.9678 20.5003 35.9819 22.0904 34.6579 23.3727C34.2802 23.7373 33.99 24.1168 33.8152 24.5242L32.3976 31.3738C32.3257 31.5406 32.2065 31.6826 32.0548 31.7825C31.9031 31.8823 31.7254 31.9355 31.5438 31.9356H22.2424C22.0605 31.9359 21.8824 31.8828 21.7303 31.783C21.5782 31.6831 21.4587 31.5408 21.3867 31.3738L19.971 24.5223C19.7683 24.0875 19.482 23.6968 19.1283 23.3727C18.0524 22.3331 17.197 21.0873 16.6134 19.7097C16.0298 18.3321 15.7298 16.851 15.7315 15.3549ZM21.3123 34.4025C21.3123 34.1558 21.4103 33.9192 21.5847 33.7448C21.7591 33.5703 21.9957 33.4723 22.2424 33.4723H31.5438C31.7905 33.4723 32.0271 33.5703 32.2015 33.7448C32.3759 33.9192 32.4739 34.1558 32.4739 34.4025C32.4739 34.6491 32.3759 34.8857 32.2015 35.0602C32.0271 35.2346 31.7905 35.3326 31.5438 35.3326L31.1271 36.1641C30.9727 36.4731 30.7353 36.733 30.4416 36.9147C30.1479 37.0964 29.8094 37.1927 29.464 37.1929H24.3222C23.9768 37.1927 23.6383 37.0964 23.3446 36.9147C23.0508 36.733 22.8135 36.4731 22.6591 36.1641L22.2424 35.3326C21.9957 35.3326 21.7591 35.2346 21.5847 35.0602C21.4103 34.8857 21.3123 34.6491 21.3123 34.4025Z" fill="#739EFF" fill-opacity="0.5"/>
</g>
<path d="M27.881 12.6976C29.36 13.5515 30.5178 14.5627 31.2041 15.4768C31.5482 15.9351 31.7496 16.3369 31.8335 16.6553C31.9161 16.9691 31.8722 17.1427 31.8173 17.2378C31.7624 17.3328 31.6341 17.4577 31.3209 17.543C31.0033 17.6295 30.5546 17.656 29.9856 17.5872C28.8508 17.4499 27.3962 16.9528 25.9172 16.0989C24.4382 15.245 23.2805 14.2338 22.5942 13.3197C22.2501 12.8614 22.0487 12.4596 21.9648 12.1412C21.8821 11.8274 21.9261 11.6538 21.981 11.5587C22.0358 11.4637 22.1642 11.3388 22.4773 11.2535C22.7949 11.167 23.2436 11.1405 23.8126 11.2093C24.9474 11.3466 26.402 11.8437 27.881 12.6976Z" stroke="white" stroke-width="1.6"/>
<path d="M25.9168 12.6976C24.4378 13.5515 23.2801 14.5627 22.5938 15.4768C22.2497 15.9351 22.0483 16.3369 21.9644 16.6553C21.8817 16.9691 21.9257 17.1427 21.9806 17.2378C22.0354 17.3328 22.1638 17.4577 22.4769 17.543C22.7945 17.6295 23.2432 17.656 23.8122 17.5872C24.947 17.4499 26.4016 16.9528 27.8806 16.0989C29.3596 15.245 30.5174 14.2338 31.2037 13.3197C31.5478 12.8614 31.7492 12.4596 31.8331 12.1412C31.9157 11.8274 31.8718 11.6538 31.8169 11.5587C31.762 11.4637 31.6337 11.3388 31.3205 11.2535C31.0029 11.167 30.5542 11.1405 29.9852 11.2093C28.8504 11.3466 27.3958 11.8437 25.9168 12.6976Z" stroke="white" stroke-opacity="0.8" stroke-width="1.6"/>
<path d="M28.6395 14.4672C28.6395 16.2105 28.3435 17.7513 27.8955 18.8264C27.6708 19.3657 27.4236 19.7499 27.19 19.9871C26.9591 20.2214 26.7905 20.2672 26.6895 20.2672C26.5884 20.2672 26.4198 20.2214 26.1889 19.9871C25.9553 19.7499 25.7081 19.3657 25.4834 18.8264C25.0354 17.7513 24.7395 16.2105 24.7395 14.4672C24.7395 12.7239 25.0354 11.1831 25.4834 10.108C25.7081 9.56865 25.9553 9.18444 26.1889 8.94727C26.4198 8.71293 26.5884 8.66719 26.6895 8.66719C26.7905 8.66719 26.9591 8.71293 27.19 8.94727C27.4236 9.18444 27.6708 9.56865 27.8955 10.108C28.3435 11.1831 28.6395 12.7239 28.6395 14.4672Z" stroke="white" stroke-opacity="0.7" stroke-width="1.6"/>
<defs>
<filter id="filter0_bi_214_2651" x="-4.26855" y="-15.8071" width="62.3232" height="73" filterUnits="userSpaceOnUse" color-interpolation-filters="sRGB">
<feFlood flood-opacity="0" result="BackgroundImageFix"/>
<feGaussianBlur in="BackgroundImageFix" stdDeviation="10"/>
<feComposite in2="SourceAlpha" operator="in" result="effect1_backgroundBlur_214_2651"/>
<feBlend mode="normal" in="SourceGraphic" in2="effect1_backgroundBlur_214_2651" result="shape"/>
<feColorMatrix in="SourceAlpha" type="matrix" values="0 0 0 0 0 0 0 0 0 0 0 0 0 0 0 0 0 0 127 0" result="hardAlpha"/>
<feOffset dx="2" dy="3"/>
<feGaussianBlur stdDeviation="10"/>
<feComposite in2="hardAlpha" operator="arithmetic" k2="-1" k3="1"/>
<feColorMatrix type="matrix" values="0 0 0 0 1 0 0 0 0 1 0 0 0 0 1 0 0 0 0.6 0"/>
<feBlend mode="normal" in2="shape" result="effect2_innerShadow_214_2651"/>
</filter>
</defs>
</svg>
