<svg width="44" height="44" viewBox="0 0 44 44" fill="none" xmlns="http://www.w3.org/2000/svg">
<circle cx="20.8776" cy="22.8124" r="14.1789" fill="#306FFF"/>
<circle cx="20.878" cy="22.8136" r="8.81993" fill="#004098"/>
<path fill-rule="evenodd" clip-rule="evenodd" d="M20.5604 15.8706C20.8643 15.5641 21.3591 15.562 21.6656 15.8659C21.9721 16.1699 21.9742 16.6647 21.6702 16.9712L21.0336 17.6132L29.0383 25.6179L37.5291 17.127C37.8343 16.8218 38.3291 16.8218 38.6343 17.127C38.9395 17.4322 38.9395 17.9271 38.6343 18.2323L29.5911 27.2755C29.389 27.4776 29.1036 27.5459 28.8453 27.4802C28.7134 27.4468 28.5885 27.3785 28.4853 27.2753L19.9331 18.7231L12.1993 26.5226C11.8953 26.8291 11.4005 26.8312 11.094 26.5273C10.7875 26.2234 10.7855 25.7286 11.0894 25.4221L18.8278 17.6179L18.1835 16.9735C17.8783 16.6683 17.8783 16.1735 18.1835 15.8683C18.4887 15.5631 18.9835 15.5631 19.2887 15.8683L19.9284 16.508L20.5604 15.8706Z" fill="white"/>
<g filter="url(#filter0_bi_214_2661)">
<path fill-rule="evenodd" clip-rule="evenodd" d="M20.3196 21.8826C22.7654 21.8826 24.7481 19.8998 24.7481 17.454C24.7481 15.0082 22.7654 13.0254 20.3196 13.0254C17.8737 13.0254 15.891 15.0082 15.891 17.454C15.891 19.8998 17.8737 21.8826 20.3196 21.8826ZM28.5082 29.2892C30.3835 29.2892 31.9037 27.769 31.9037 25.8937C31.9037 24.0184 30.3835 22.4982 28.5082 22.4982C26.6329 22.4982 25.1127 24.0184 25.1127 25.8937C25.1127 27.769 26.6329 29.2892 28.5082 29.2892ZM42.4624 19.2775C42.4624 22.155 40.1298 24.4876 37.2523 24.4876C34.3749 24.4876 32.0423 22.155 32.0423 19.2775C32.0423 16.4001 34.3749 14.0674 37.2523 14.0674C40.1298 14.0674 42.4624 16.4001 42.4624 19.2775ZM12.616 28.1368C14.2808 28.1368 15.6304 26.7872 15.6304 25.1224C15.6304 23.4576 14.2808 22.108 12.616 22.108C10.9512 22.108 9.60156 23.4576 9.60156 25.1224C9.60156 26.7872 10.9512 28.1368 12.616 28.1368Z" fill="#739EFF" fill-opacity="0.5"/>
</g>
<defs>
<filter id="filter0_bi_214_2661" x="-0.818605" y="2.60526" width="53.7012" height="37.1041" filterUnits="userSpaceOnUse" color-interpolation-filters="sRGB">
<feFlood flood-opacity="0" result="BackgroundImageFix"/>
<feGaussianBlur in="BackgroundImageFix" stdDeviation="5.21008"/>
<feComposite in2="SourceAlpha" operator="in" result="effect1_backgroundBlur_214_2661"/>
<feBlend mode="normal" in="SourceGraphic" in2="effect1_backgroundBlur_214_2661" result="shape"/>
<feColorMatrix in="SourceAlpha" type="matrix" values="0 0 0 0 0 0 0 0 0 0 0 0 0 0 0 0 0 0 127 0" result="hardAlpha"/>
<feOffset dx="1.04202" dy="1.56303"/>
<feGaussianBlur stdDeviation="5.21008"/>
<feComposite in2="hardAlpha" operator="arithmetic" k2="-1" k3="1"/>
<feColorMatrix type="matrix" values="0 0 0 0 1 0 0 0 0 1 0 0 0 0 1 0 0 0 0.6 0"/>
<feBlend mode="normal" in2="shape" result="effect2_innerShadow_214_2661"/>
</filter>
</defs>
</svg>
