<svg width="24" height="24" viewBox="0 0 24 24" fill="none" xmlns="http://www.w3.org/2000/svg">
<g id="icon_search">
<path id="Union" fill-rule="evenodd" clip-rule="evenodd" d="M5.82959 10.8042C5.82959 8.05616 8.05732 5.82843 10.8054 5.82843C13.5534 5.82843 15.7812 8.05616 15.7812 10.8042C15.7812 13.5523 13.5534 15.78 10.8054 15.78C8.05732 15.78 5.82959 13.5523 5.82959 10.8042ZM10.8054 3.82843C6.95275 3.82843 3.82959 6.95159 3.82959 10.8042C3.82959 14.6568 6.95275 17.78 10.8054 17.78C12.371 17.78 13.8161 17.2642 14.9802 16.3934L18.4639 19.8771C18.8545 20.2677 19.4876 20.2677 19.8782 19.8771C20.2687 19.4866 20.2687 18.8535 19.8782 18.4629L16.3944 14.9792C17.2653 13.8151 17.7812 12.3699 17.7812 10.8042C17.7812 6.95159 14.658 3.82843 10.8054 3.82843Z" fill="#17233B"/>
</g>
</svg>
