<svg width="38" height="38" viewBox="0 0 38 38" fill="none" xmlns="http://www.w3.org/2000/svg">
<g id="ico1">
<g id="Group 663">
<path id="Vector 12" d="M16.0871 32.2536V29.0612C16.2999 28.2099 16.2148 26.0604 14.1716 24.2726C12.1285 22.4849 10.1276 20.6546 9.70196 20.1225C9.16989 19.6968 8.55299 19.2925 7.78682 19.8032C7.02064 20.314 7.46758 21.293 7.78682 21.7187L11.2982 25.2303V27.1458" stroke="black" stroke-width="1.52" stroke-linecap="round" stroke-linejoin="round"/>
<path id="Vector 13" d="M9.06352 31.9344C9.27634 31.0831 9.31891 29.1251 7.78655 28.1035C5.87111 26.8266 4.2749 25.2304 4.2749 22.0379C4.2749 19.484 4.2749 15.4403 4.2749 14.0569C4.2749 13.5249 4.84954 12.4607 5.87111 12.4607C6.89268 12.4607 7.46731 13.5249 7.46731 14.0569V17.8878" stroke="black" stroke-width="1.52" stroke-linecap="round"/>
</g>
<g id="Group 662">
<path id="Vector 14" d="M21.9129 32.2536V29.0612C21.7001 28.2099 21.7852 26.0604 23.8284 24.2726C25.8715 22.4849 27.8724 20.6546 28.298 20.1225C28.8301 19.6968 29.447 19.2925 30.2132 19.8032C30.9794 20.314 30.5324 21.293 30.2132 21.7187L26.7018 25.2303V27.1458" stroke="black" stroke-width="1.52" stroke-linecap="round" stroke-linejoin="round"/>
<path id="Vector 15" d="M28.9365 31.9344C28.7237 31.0831 28.6811 29.1251 30.2134 28.1035C32.1289 26.8266 33.7251 25.2303 33.7251 22.0379C33.7251 19.484 33.7251 15.4403 33.7251 14.0569C33.7251 13.5248 33.1505 12.4607 32.1289 12.4607C31.1073 12.4607 30.5327 13.5248 30.5327 14.0569V17.8878" stroke="black" stroke-width="1.52" stroke-linecap="round"/>
</g>
<g id="Group 661">
<g id="Group 664">
<circle id="Ellipse 59" cx="19.2798" cy="9.2683" r="4.02861" stroke="#004098" stroke-width="1.52"/>
<path id="Vector 16" d="M12.895 20.1225C12.895 17.8878 14.172 13.4184 19.2798 13.4184C24.3877 13.4184 25.6647 17.8878 25.6647 20.1225" stroke="#004098" stroke-width="1.52"/>
</g>
</g>
</g>
</svg>
