<svg width="38" height="38" viewBox="0 0 38 38" fill="none" xmlns="http://www.w3.org/2000/svg">
<g id="ico4">
<g id="Group 669">
<line id="Line 61" x1="7.75464" y1="6.91669" x2="30.5546" y2="6.91669" stroke="black" stroke-width="2"/>
<g id="Group 667">
<path id="Vector 19" d="M2.05444 21.85L7.75444 6.64996L13.1378 21.85C13.2433 23.6444 12.3144 27.55 7.75444 27.55C3.19444 27.55 2.05444 23.6444 2.05444 21.85Z" stroke="#004098" stroke-width="2" stroke-linecap="round" stroke-linejoin="round"/>
<line id="Line 62" x1="2.05444" y1="22.1166" x2="12.8211" y2="22.1166" stroke="#004098" stroke-width="2"/>
</g>
<g id="Group 668">
<path id="Vector 19_2" d="M24.8547 21.85L30.5547 6.64996L35.9381 21.85C36.0436 23.6444 35.1147 27.55 30.5547 27.55C25.9947 27.55 24.8547 23.6444 24.8547 21.85Z" stroke="#004098" stroke-width="2" stroke-linecap="round" stroke-linejoin="round"/>
<line id="Line 62_2" x1="24.8545" y1="22.1166" x2="35.6212" y2="22.1166" stroke="#004098" stroke-width="2"/>
</g>
<circle id="Ellipse 65" cx="19.4332" cy="7.28333" r="1.53333" fill="white" stroke="black" stroke-width="2"/>
<line id="Line 63" x1="19.521" y1="8.54999" x2="19.521" y2="32.6167" stroke="black" stroke-width="2"/>
<line id="Line 64" x1="12.821" y1="32.25" x2="25.4877" y2="32.25" stroke="black" stroke-width="2"/>
</g>
</g>
</svg>
