<svg width="38" height="38" viewBox="0 0 38 38" fill="none" xmlns="http://www.w3.org/2000/svg">
<g id="ico2">
<rect id="Rectangle 447" x="4.75" y="30.2002" width="8.23333" height="1.9" rx="0.95" fill="black"/>
<rect id="Rectangle 448" x="14.8833" y="30.2002" width="8.23333" height="1.9" rx="0.95" fill="black"/>
<rect id="Rectangle 449" x="25.0166" y="30.2002" width="8.23333" height="1.9" rx="0.95" fill="black"/>
<rect id="Rectangle 450" x="25.0166" y="25.1336" width="8.23333" height="1.9" rx="0.95" fill="black"/>
<rect id="Rectangle 451" x="25.0166" y="20.0669" width="8.23333" height="1.9" rx="0.95" fill="black"/>
<rect id="Rectangle 452" x="14.8833" y="25.1336" width="8.23333" height="1.9" rx="0.95" fill="black"/>
<path id="Vector 17" d="M5.33444 26.1161L16.15 16.8519L19 20.3482L32.0324 7.68419M32.0324 7.68419L27.2942 7.34961M32.0324 7.68419L31.6755 12.7383" stroke="#004098" stroke-width="2" stroke-linecap="round" stroke-linejoin="round"/>
<path id="Vector 18" d="M7.91667 17.079L18.4643 8.09678M18.4643 8.09678L13.7261 7.7622M18.4643 8.09678L18.1075 13.1509" stroke="#0F0F0F" stroke-width="2" stroke-linecap="round" stroke-linejoin="round"/>
</g>
</svg>
